<svg width="54" height="54" viewBox="0 0 54 54" fill="none" xmlns="http://www.w3.org/2000/svg">
<g opacity="0.5">
<path fill-rule="evenodd" clip-rule="evenodd" d="M10.6155 6.95701C13.374 4.05226 17.937 4.59451 20.2185 7.82101L23.0535 11.835C24.8783 14.4158 24.7253 18 22.5473 20.295L21.996 20.8733L21.9915 20.8868C21.9623 20.9678 21.8903 21.2288 21.9623 21.7238C22.113 22.7475 22.9028 24.831 26.1158 28.2128C29.3378 31.6058 31.2908 32.4045 32.1975 32.553C32.4159 32.6027 32.6432 32.5973 32.859 32.5373L33.777 31.5698C35.7435 29.4998 38.808 29.0925 41.2808 30.5145L45.5783 32.9895C49.2525 35.1045 50.1075 40.2773 47.1713 43.3688L43.9763 46.7325C42.9795 47.7833 41.6183 48.681 39.9375 48.8475C35.8335 49.2525 26.3273 48.7238 16.362 38.2298C7.0605 28.44 5.29425 19.9238 5.0715 15.7635C4.96125 13.707 5.877 11.9453 7.083 10.674L10.6155 6.95701ZM17.4623 9.76951C16.3103 8.14051 14.238 8.04151 13.0613 9.28126L9.52875 12.9983C8.78625 13.7858 8.3925 14.6858 8.442 15.5835C8.622 18.981 10.0868 26.7255 18.8078 35.9055C27.9518 45.5355 36.378 45.8055 39.6068 45.4883C40.2435 45.4253 40.9005 45.0698 41.5283 44.4083L44.7233 41.0445C46.1048 39.591 45.7425 36.9765 43.8953 35.9145L39.5978 33.4395C38.4435 32.7758 37.0913 32.9805 36.225 33.894L35.199 34.974L34.0133 33.8468C35.199 34.9718 35.199 34.974 35.1968 34.9763L35.1945 34.9785L35.1878 34.9875L35.172 35.001L35.1405 35.0325C35.0461 35.1253 34.9437 35.2097 34.8345 35.2845C34.6545 35.4105 34.416 35.5523 34.1123 35.6715C33.4913 35.9168 32.6723 36.0473 31.6575 35.883C29.682 35.5635 27.0945 34.1438 23.67 30.537C20.232 26.919 18.9158 24.2213 18.6233 22.212C18.4725 21.1905 18.5918 20.3738 18.8123 19.755C18.9349 19.4103 19.1094 19.0863 19.3298 18.7943L19.3973 18.711L19.4288 18.6773L19.4423 18.6615L19.449 18.6548L19.4535 18.6525C19.4535 18.6525 19.4535 18.648 20.6528 19.7843L19.4558 18.648L20.1015 17.9685C21.1028 16.9133 21.249 15.1268 20.2995 13.7835L17.4623 9.76951Z" fill="#757B8A"/>
<path d="M29.8349 4.22998C29.8704 4.01115 29.9488 3.80147 30.0654 3.61292C30.182 3.42436 30.3346 3.26063 30.5145 3.13108C30.6944 3.00154 30.8981 2.90871 31.1139 2.8579C31.3297 2.80709 31.5534 2.79931 31.7722 2.83498C31.8284 2.84623 32.0129 2.87998 32.1097 2.90248C32.3032 2.94298 32.5672 3.01048 32.9017 3.10498C33.5699 3.30073 34.5037 3.62248 35.6242 4.13548C37.8652 5.16373 40.8464 6.96148 43.9424 10.0552C47.0384 13.1512 48.8362 16.1347 49.8644 18.3757C50.3774 19.4962 50.6969 20.4277 50.8927 21.0982C50.9907 21.4353 51.0755 21.7761 51.1469 22.1197L51.1582 22.1895C51.2323 22.6351 51.1282 23.0919 50.8685 23.4615C50.6088 23.831 50.2142 24.0837 49.7699 24.165C49.3294 24.2365 48.8784 24.1306 48.5157 23.8704C48.1531 23.6102 47.9083 23.217 47.8349 22.7767C47.788 22.5283 47.7271 22.2826 47.6527 22.041C47.4227 21.2683 47.137 20.5133 46.7977 19.782C45.9202 17.8695 44.3407 15.228 41.5552 12.4425C38.7697 9.65698 36.1304 8.07973 34.2157 7.20223C33.4851 6.86302 32.7309 6.57727 31.9589 6.34723C31.7221 6.28073 31.4835 6.2207 31.2434 6.16723C30.8017 6.09311 30.4067 5.84865 30.1433 5.4864C29.88 5.12414 29.7692 4.67302 29.8349 4.22998Z" fill="#757B8A"/>
<path fill-rule="evenodd" clip-rule="evenodd" d="M30.3435 11.9925C30.4042 11.7793 30.5063 11.5801 30.644 11.4064C30.7816 11.2326 30.9522 11.0877 31.1459 10.9799C31.3396 10.8721 31.5526 10.8035 31.7728 10.778C31.993 10.7526 32.2161 10.7707 32.4293 10.8315L31.9658 12.4538L32.4315 10.8338H32.436L32.445 10.836L32.4608 10.8405L32.5058 10.8563C32.5403 10.8653 32.583 10.8795 32.634 10.899C32.7345 10.9335 32.8673 10.986 33.0323 11.0565C33.3585 11.196 33.8063 11.412 34.3575 11.7383C35.46 12.3908 36.9608 13.4708 38.727 15.2393C40.4933 17.0055 41.5778 18.5085 42.228 19.6088C42.5543 20.16 42.7703 20.6078 42.912 20.9363C42.986 21.1082 43.0528 21.2831 43.1123 21.4605L43.1258 21.5055L43.1303 21.5235L43.1325 21.5303V21.5348L41.5125 22.0005L43.1348 21.537C43.2607 21.9667 43.2108 22.4287 42.996 22.8216C42.7812 23.2144 42.4192 23.5059 41.9895 23.6318C41.5599 23.7577 41.0978 23.7078 40.705 23.493C40.3121 23.2782 40.0207 22.9162 39.8948 22.4865L39.888 22.464L39.8093 22.266C39.6658 21.944 39.5035 21.6307 39.3233 21.3278C38.8215 20.4818 37.917 19.1993 36.342 17.6243C34.767 16.0493 33.4845 15.1448 32.6385 14.643C32.2742 14.4291 31.8953 14.2412 31.5045 14.0805L31.482 14.0715C31.0566 13.9442 30.6985 13.6543 30.4854 13.2647C30.2722 12.8751 30.2213 12.4194 30.3435 11.9925Z" fill="#757B8A"/>
</g>
</svg>
