<svg width="54" height="54" viewBox="0 0 54 54" fill="none" xmlns="http://www.w3.org/2000/svg">
<g opacity="0.5">
<path fill-rule="evenodd" clip-rule="evenodd" d="M39.1182 6.5835C36.1932 6.192 32.3502 6.1875 26.9997 6.1875C21.6492 6.1875 17.8062 6.192 14.8812 6.5835C12.0035 6.9705 10.2687 7.7085 8.9862 8.98875C7.70595 10.2712 6.9702 12.0037 6.5832 14.8815C6.1917 17.8065 6.1872 21.6495 6.1872 27C6.1872 32.3505 6.1917 36.1935 6.5832 39.1185C6.9702 41.9963 7.7082 43.731 8.98845 45.0135C10.0392 46.0643 11.396 46.746 13.4412 47.1735L47.1732 13.4415C46.7457 11.3985 46.064 10.0395 45.0132 8.9865C43.7307 7.70625 41.996 6.9705 39.1182 6.5835ZM47.6705 17.7165L33.887 31.5L46.0527 43.6657C46.7165 42.5407 47.1485 41.1007 47.4162 39.1207C47.8077 36.1957 47.8122 32.3505 47.8122 27C47.8122 23.2245 47.8122 20.1982 47.6705 17.7165ZM43.6655 46.053L31.4997 33.885L17.7162 47.6707C20.198 47.8102 23.2242 47.8125 26.9997 47.8125C32.3502 47.8125 36.1932 47.808 39.1182 47.4165C41.1027 47.1488 42.545 46.7168 43.6677 46.053M39.5727 3.24C42.8217 3.6765 45.3867 4.59 47.4005 6.6015C49.4142 8.61525 50.3255 11.1803 50.762 14.4315C51.1895 17.6062 51.1895 21.6765 51.1895 26.8717V27.1283C51.1895 32.3235 51.1895 36.3937 50.762 39.5708C50.3255 42.8197 49.412 45.3848 47.4005 47.3985C45.3867 49.4123 42.8217 50.3235 39.5705 50.76C36.3957 51.1875 32.3255 51.1875 27.1302 51.1875H26.8737C21.6785 51.1875 17.6082 51.1875 14.4312 50.76C11.1822 50.3235 8.6172 49.41 6.60345 47.3985C4.5897 45.3848 3.67845 42.8198 3.24195 39.5685C2.81445 36.3937 2.81445 32.3235 2.81445 27.1283V26.8717C2.81445 21.6765 2.81445 17.6062 3.24195 14.4293C3.67845 11.1803 4.59195 8.61525 6.60345 6.6015C8.6172 4.58775 11.1822 3.6765 14.4335 3.24C17.6082 2.8125 21.6785 2.8125 26.8737 2.8125H27.1302C32.3255 2.8125 36.3957 2.8125 39.5727 3.24ZM10.6872 19.7033C10.6872 14.6115 15.0837 10.6875 20.2497 10.6875C25.4157 10.6875 29.8122 14.6115 29.8122 19.7033C29.8122 24.264 27.0087 29.6437 22.3535 31.6327C21.6878 31.9143 20.9724 32.0594 20.2497 32.0594C19.527 32.0594 18.8116 31.9143 18.146 31.6327C13.4885 29.6437 10.6872 24.264 10.6872 19.7033ZM20.2497 14.0625C16.7172 14.0625 14.0622 16.6995 14.0622 19.7033C14.0622 23.1772 16.2852 27.1688 19.4735 28.53C19.7195 28.6321 19.9833 28.6847 20.2497 28.6847C20.5161 28.6847 20.7799 28.6321 21.026 28.53C24.2142 27.1688 26.4372 23.175 26.4372 19.7033C26.4372 16.6995 23.7822 14.0625 20.2497 14.0625Z" fill="#757B8A"/>
<path d="M22.5 20.25C22.5 20.8467 22.2629 21.419 21.841 21.841C21.419 22.2629 20.8467 22.5 20.25 22.5C19.6533 22.5 19.081 22.2629 18.659 21.841C18.2371 21.419 18 20.8467 18 20.25C18 19.6533 18.2371 19.081 18.659 18.659C19.081 18.2371 19.6533 18 20.25 18C20.8467 18 21.419 18.2371 21.841 18.659C22.2629 19.081 22.5 19.6533 22.5 20.25Z" fill="#757B8A"/>
</g>
</svg>
