<svg width="54" height="54" viewBox="0 0 54 54" fill="none" xmlns="http://www.w3.org/2000/svg">
<g opacity="0.5">
<path fill-rule="evenodd" clip-rule="evenodd" d="M42.75 6.1875C42.0852 6.1875 41.4269 6.31845 40.8127 6.57286C40.1985 6.82727 39.6404 7.20018 39.1703 7.67027C38.7002 8.14037 38.3273 8.69845 38.0729 9.31266C37.8184 9.92688 37.6875 10.5852 37.6875 11.25C37.6875 11.9148 37.8184 12.5731 38.0729 13.1873C38.3273 13.8015 38.7002 14.3596 39.1703 14.8297C39.6404 15.2998 40.1985 15.6727 40.8127 15.9271C41.4269 16.1816 42.0852 16.3125 42.75 16.3125C44.0927 16.3125 45.3803 15.7791 46.3297 14.8297C47.2791 13.8803 47.8125 12.5927 47.8125 11.25C47.8125 9.90734 47.2791 8.61967 46.3297 7.67027C45.3803 6.72087 44.0927 6.1875 42.75 6.1875ZM34.3125 11.25C34.3125 9.01224 35.2014 6.86612 36.7838 5.28379C38.3661 3.70145 40.5122 2.8125 42.75 2.8125C44.9878 2.8125 47.1339 3.70145 48.7162 5.28379C50.2986 6.86612 51.1875 9.01224 51.1875 11.25C51.1875 13.4878 50.2986 15.6339 48.7162 17.2162C47.1339 18.7986 44.9878 19.6875 42.75 19.6875C40.5122 19.6875 38.3661 18.7986 36.7838 17.2162C35.2014 15.6339 34.3125 13.4878 34.3125 11.25ZM22.374 7.3125H29.25C29.6976 7.3125 30.1268 7.49029 30.4432 7.80676C30.7597 8.12322 30.9375 8.55245 30.9375 9C30.9375 9.44755 30.7597 9.87678 30.4432 10.1932C30.1268 10.5097 29.6976 10.6875 29.25 10.6875H22.5C18.2093 10.6875 15.1628 10.692 12.8475 11.0025C10.5863 11.3062 9.28125 11.8778 8.3295 12.8295C7.37775 13.7812 6.80625 15.0863 6.5025 17.3475C6.192 19.6605 6.1875 22.707 6.1875 26.9977C6.1875 31.2885 6.192 34.3372 6.5025 36.6502C6.80625 38.9115 7.37775 40.2165 8.3295 41.1683C9.28125 42.12 10.5862 42.6915 12.8497 42.9952C15.1628 43.3057 18.2093 43.3102 22.5 43.3102H31.5C35.7907 43.3102 38.8395 43.3057 41.1525 42.9952C43.4138 42.6915 44.7188 42.12 45.6705 41.1683C46.6222 40.2165 47.1938 38.9115 47.4975 36.648C47.808 34.335 47.8125 31.2885 47.8125 26.9977C47.8125 26.1585 47.8192 25.5465 47.8237 25.0178C47.8327 24.165 47.8395 23.5373 47.8125 22.5427C47.8006 22.0952 47.9669 21.6612 48.2749 21.3363C48.583 21.0114 49.0074 20.8222 49.455 20.8102C49.9026 20.7983 50.3365 20.9647 50.6614 21.2727C50.9863 21.5807 51.1756 22.0052 51.1875 22.4528C51.2145 23.5035 51.2077 24.219 51.1987 25.1235C51.1942 25.65 51.1875 26.2417 51.1875 26.9977V27.1238C51.1875 31.2593 51.1875 34.5353 50.8433 37.098C50.4878 39.735 49.7407 41.8703 48.0577 43.5555C46.3725 45.2385 44.2373 45.9855 41.6003 46.341C39.0353 46.6853 35.7615 46.6852 31.626 46.6852H22.374C18.2385 46.6852 14.9625 46.6853 12.3998 46.341C9.76275 45.9855 7.6275 45.2385 5.94225 43.5555C4.25925 41.8703 3.51225 39.735 3.15675 37.098C2.8125 34.533 2.8125 31.2593 2.8125 27.1238V26.8717C2.8125 22.7362 2.8125 19.4603 3.15675 16.8975C3.51225 14.2605 4.25925 12.1252 5.94225 10.44C7.6275 8.757 9.76275 8.01 12.3998 7.6545C14.9648 7.31025 18.2385 7.3125 22.374 7.3125ZM12.204 16.9178C12.4905 16.5741 12.9017 16.3584 13.3473 16.3179C13.7928 16.2774 14.2362 16.4154 14.58 16.7017L19.44 20.7517C21.5393 22.5 22.995 23.7105 24.228 24.5025C25.4182 25.2675 26.226 25.5263 27.0023 25.5263C27.7785 25.5263 28.5863 25.2698 29.7765 24.5025C31.0072 23.7105 32.4653 22.5 34.5645 20.7517C34.7339 20.6036 34.9311 20.4908 35.1447 20.42C35.3583 20.3492 35.5839 20.3219 35.8082 20.3395C36.0325 20.3572 36.251 20.4196 36.4509 20.523C36.6508 20.6263 36.8279 20.7687 36.972 20.9415C37.116 21.1144 37.2241 21.3143 37.2897 21.5295C37.3554 21.7447 37.3773 21.9709 37.3542 22.1948C37.3312 22.4186 37.2636 22.6355 37.1554 22.8329C37.0473 23.0302 36.9008 23.2039 36.7245 23.3438L36.6413 23.4157C34.6455 25.0762 33.03 26.424 31.6012 27.342C30.1163 28.2983 28.6695 28.9013 27.0023 28.9013C25.335 28.9013 23.8883 28.296 22.401 27.342C20.9745 26.424 19.359 25.0762 17.3632 23.4157L12.42 19.2982C12.2495 19.1564 12.1087 18.9823 12.0056 18.7859C11.9025 18.5895 11.8391 18.3748 11.819 18.1539C11.7989 17.933 11.8226 17.7104 11.8887 17.4986C11.9547 17.2869 12.0619 17.088 12.204 16.9178Z" fill="#757B8A"/>
</g>
</svg>
