<svg width="229" height="190" viewBox="0 0 229 190" fill="none" xmlns="http://www.w3.org/2000/svg">
<path d="M13.0187 127.762C53.4379 199.492 77.304 189.529 113.47 189.529C190.322 189.529 228.999 145.727 228.999 91.6931C228.999 37.6597 195.012 -6.73057 113.47 9.33111C31.9279 25.3928 -27.4006 56.0327 13.0187 127.762Z" fill="#42B1FF"/>
<path d="M215.45 63.4502C214.792 62.2923 214.134 61.1563 213.476 60.0418L213.907 59.7877C212.546 57.4803 211.186 55.2646 209.826 53.1368L209.405 53.406C207.953 51.1335 206.502 48.9621 205.053 46.8873L205.462 46.6009C203.922 44.396 202.381 42.2995 200.841 40.306L200.445 40.6117C198.795 38.4762 197.146 36.4599 195.496 34.5562L195.873 34.2287C194.104 32.1871 192.333 30.2739 190.561 28.4811L190.206 28.8326C188.316 26.9207 186.425 25.1469 184.531 23.5014L184.859 23.124C182.823 21.3543 180.783 19.7314 178.739 18.2434L178.445 18.6477C176.283 17.0743 174.116 15.653 171.944 14.3691L172.198 13.9386C169.896 12.5784 167.586 11.3712 165.267 10.3L165.058 10.7539C162.664 9.64828 160.261 8.68846 157.845 7.8556L158.008 7.3829C155.516 6.52392 153.011 5.79925 150.492 5.18847L150.374 5.67439C147.845 5.06115 145.299 4.56311 142.735 4.15949L142.812 3.66558C140.24 3.26063 137.649 2.95048 135.04 2.71421L134.995 3.21218C132.42 2.97903 129.824 2.81797 127.205 2.70882L127.226 2.20925C124.638 2.10134 122.028 2.04413 119.396 2.01809L119.391 2.51807C118.093 2.50522 116.788 2.49997 115.478 2.49997C114.175 2.49997 112.882 2.5125 111.601 2.53739L111.591 2.0375C108.975 2.08831 106.405 2.19052 103.88 2.34276L103.911 2.84185C101.307 2.99889 98.7518 3.20926 96.2462 3.47145L96.1942 2.97417C93.5942 3.24623 91.0468 3.57393 88.5518 3.95558L88.6274 4.44983C86.0416 4.84537 83.5128 5.29901 81.0408 5.80879L80.9399 5.31909C78.3723 5.8486 75.8656 6.43855 73.4198 7.08684L73.5479 7.57016C71.0284 8.23796 68.5742 8.96779 66.1853 9.75729L66.0284 9.28254C63.5428 10.104 61.1272 10.9898 58.7815 11.9376L58.9688 12.4012C56.5519 13.3777 54.2101 14.42 51.9432 15.5253L51.7241 15.0758C49.3781 16.2196 47.1117 17.4307 44.9249 18.7058L45.1768 19.1377C42.9306 20.4475 40.7692 21.825 38.6924 23.2669L38.4073 22.8561C36.2688 24.3408 34.2195 25.8935 32.2592 27.5105L32.5774 27.8963C30.5817 29.5426 28.679 31.2558 26.8694 33.0318L26.5192 32.675C24.6682 34.4918 22.9139 36.3741 21.2563 38.3179L21.6367 38.6423C19.9679 40.5993 18.3978 42.6187 16.9264 44.6965L16.5184 44.4075C15.0267 46.5139 13.6358 48.6798 12.3459 50.9008L12.7783 51.1519C11.493 53.3649 10.3085 55.633 9.22474 57.9518L8.77177 57.7401C7.68424 60.0669 6.69771 62.4444 5.81225 64.868L6.28189 65.0396C5.40738 67.4332 4.63193 69.8723 3.95562 72.3525L3.47324 72.221C2.79982 74.6906 2.22426 77.2005 1.74661 79.7466L2.23804 79.8388C1.7695 82.3362 1.39561 84.8689 1.11646 87.4327L0.619399 87.3786C0.343091 89.9164 0.1592 92.4843 0.0677846 95.0783L0.567474 95.0959C0.522506 96.3719 0.500016 97.6544 0.500016 98.9428C0.500016 100.217 0.541976 101.497 0.624772 102.782L0.125807 102.815C0.290182 105.366 0.614132 107.935 1.08869 110.509L1.5804 110.418C2.04041 112.913 2.64313 115.414 3.38049 117.91L2.90098 118.052C3.62536 120.504 4.47858 122.95 5.45287 125.379L5.91695 125.193C6.86364 127.554 7.92553 129.899 9.09551 132.22L8.64903 132.445C9.80402 134.736 11.0635 137.003 12.4206 139.235L12.8479 138.975C14.1737 141.156 15.5932 143.305 17.1002 145.413L16.6934 145.704C18.189 147.796 19.7702 149.847 21.4305 151.85L21.8154 151.531C23.4526 153.505 25.1671 155.432 26.9531 157.304L26.5914 157.649C28.3718 159.514 30.2228 161.324 32.1384 163.071L32.4753 162.702C34.3755 164.434 36.3395 166.104 38.3614 167.704L38.0512 168.096C40.0795 169.7 42.1658 171.234 44.3045 172.689L44.5858 172.276C46.716 173.726 48.8981 175.097 51.1262 176.382L50.8764 176.815C53.1204 178.109 55.4111 179.316 57.7426 180.428L57.9578 179.977C60.284 181.086 62.6505 182.101 65.0516 183.012L64.8741 183.48C67.296 184.399 69.7531 185.214 72.2395 185.917L72.3755 185.436C74.8516 186.135 77.3563 186.723 79.8838 187.19L79.7929 187.682C82.3341 188.152 84.8985 188.501 87.4801 188.722L87.5227 188.224C90.0743 188.442 92.6425 188.533 95.2215 188.49L95.2299 188.989C97.7988 188.946 100.379 188.77 102.963 188.454L102.903 187.958C105.429 187.649 107.96 187.205 110.491 186.618L110.604 187.105C113.092 186.528 115.581 185.815 118.064 184.957L117.9 184.485C120.284 183.661 122.664 182.705 125.033 181.608L125.243 182.062C127.543 180.998 129.833 179.803 132.109 178.473L131.857 178.041C132.964 177.394 134.068 176.715 135.168 176.002C136.301 175.269 137.43 174.543 138.555 173.826L138.824 174.247C141.101 172.794 143.362 171.373 145.602 169.98L145.338 169.555C147.633 168.127 149.907 166.729 152.155 165.358L152.416 165.785C154.732 164.371 157.021 162.986 159.278 161.624L159.02 161.196C160.72 160.171 162.402 159.159 164.064 158.159C164.676 157.791 165.285 157.425 165.891 157.06L166.149 157.488C168.475 156.089 170.761 154.711 173.001 153.351L172.741 152.924C175.07 151.51 177.349 150.116 179.572 148.735L179.836 149.16C182.157 147.719 184.418 146.293 186.612 144.876L186.341 144.456C188.636 142.973 190.858 141.501 192.998 140.032L193.281 140.444C195.547 138.889 197.723 137.337 199.799 135.781L199.5 135.381C201.7 133.731 203.788 132.077 205.751 130.408L206.075 130.789C208.18 129.001 210.146 127.195 211.958 125.36L211.602 125.008C213.531 123.054 215.282 121.07 216.841 119.04L217.238 119.345C218.911 117.166 220.367 114.933 221.586 112.628L221.144 112.394C222.39 110.037 223.384 107.606 224.106 105.082L224.587 105.22C225.309 102.695 225.763 100.077 225.929 97.3456L225.43 97.3154C225.583 94.7915 225.487 92.1672 225.123 89.4265L225.619 89.3607C225.285 86.8497 224.73 84.245 223.94 81.535L223.46 81.6748C222.758 79.2629 221.867 76.7643 220.778 74.1706L221.24 73.9771C220.262 71.648 219.127 69.2447 217.828 66.7615L217.385 66.9933C216.776 65.8304 216.132 64.6496 215.45 63.4502Z" stroke="black" stroke-dasharray="8 8"/>
<path d="M46.7034 9.46557L39.3396 93.3901C37.646 112.692 42.3182 130.009 54.0416 143.079C65.762 156.146 84.4725 164.905 110.733 167.209C136.993 169.513 156.885 164.142 170.647 153.281C184.411 142.417 191.973 126.114 193.677 106.698L201.021 23.0058C201.409 18.5836 198.138 14.684 193.716 14.296L161.039 11.4289C156.617 11.0408 152.718 14.3114 152.33 18.7335L145.109 101.03C144.465 108.366 141.484 114.709 136.351 119.014C131.22 123.317 123.887 125.628 114.454 124.8C104.902 123.962 98.025 120.404 93.6933 115.27C89.36 110.135 87.5297 103.37 88.1734 96.0347L95.3943 13.7378C95.7823 9.3157 92.5118 5.41605 88.0897 5.02804L55.4132 2.16091C50.9911 1.7729 47.0914 5.04342 46.7034 9.46557Z" fill="#263238" stroke="#263238"/>
<path d="M37.3358 91.4775L44.6996 7.55298C45.0393 3.68099 48.4538 0.817344 52.3258 1.15708L85.0023 4.02421C88.8742 4.36395 91.7379 7.77846 91.3981 11.6504L84.1772 93.9473C83.5144 101.501 85.396 108.543 89.929 113.915C94.4635 119.289 101.607 122.94 111.366 123.796C121.011 124.642 128.623 122.285 133.994 117.78C139.363 113.278 142.442 106.672 143.105 99.1177L150.326 16.8209C150.665 12.9489 154.08 10.0853 157.952 10.425L190.628 13.2922C194.5 13.6319 197.364 17.0464 197.024 20.9184L189.681 104.611C187.996 123.816 180.53 139.839 167.027 150.496C153.521 161.155 133.907 166.502 107.82 164.213C81.7331 161.924 63.2903 153.238 51.786 140.412C40.2847 127.589 35.661 110.564 37.3358 91.4775Z" fill="white" stroke="#263238"/>
</svg>
