<svg width="310" height="190" viewBox="0 0 310 190" fill="none" xmlns="http://www.w3.org/2000/svg">
<path d="M47.9643 98.205C47.9644 43.9678 110.252 -0.000104732 146.419 -0.00010157C223.274 -9.48508e-05 257.453 54.2947 260.453 91.4999C267.389 177.516 207.2 148.31 146.419 180.878C85.6385 213.446 47.9643 152.442 47.9643 98.205Z" fill="#42B1FF"/>
<path d="M260.396 79.8915C260.658 82.5381 260.834 85.1859 260.922 87.8236L260.422 87.8404C260.466 89.1616 260.489 90.4803 260.489 91.7949C260.489 93.189 260.447 94.5764 260.366 95.9564L260.865 95.9858C260.7 98.7902 260.37 101.564 259.89 104.303L259.398 104.217C258.918 106.954 258.286 109.656 257.514 112.319L257.994 112.458C257.218 115.139 256.301 117.779 255.256 120.374L254.792 120.187C253.758 122.757 252.597 125.282 251.324 127.759L251.768 127.987C250.494 130.465 249.107 132.892 247.62 135.266L247.196 135C245.724 137.35 244.153 139.647 242.495 141.887L242.896 142.184C241.237 144.426 239.49 146.61 237.67 148.732L237.291 148.406C235.479 150.518 233.593 152.568 231.645 154.551L232.002 154.901C230.04 156.899 228.016 158.829 225.942 160.686L225.608 160.314C223.525 162.18 221.39 163.973 219.218 165.688L219.528 166.08C217.318 167.824 215.07 169.487 212.795 171.065L212.51 170.654C210.199 172.258 207.861 173.772 205.51 175.193L205.768 175.621C203.339 177.089 200.895 178.456 198.453 179.718L198.224 179.274C195.701 180.578 193.18 181.768 190.678 182.838L190.875 183.298C188.237 184.426 185.62 185.421 183.043 186.276L182.886 185.802C180.157 186.707 177.475 187.454 174.865 188.034L174.973 188.522C172.126 189.154 169.36 189.589 166.706 189.816L166.664 189.318C165.252 189.439 163.874 189.5 162.534 189.5C161.222 189.5 159.922 189.487 158.633 189.462L158.624 189.962C155.992 189.909 153.407 189.805 150.868 189.649L150.898 189.15C148.279 188.989 145.71 188.773 143.19 188.505L143.137 189.002C140.522 188.723 137.96 188.388 135.451 187.997L135.528 187.503C132.927 187.097 130.384 186.632 127.899 186.11L127.796 186.599C125.216 186.057 122.697 185.453 120.24 184.789L120.371 184.306C117.841 183.623 115.376 182.876 112.978 182.068L112.818 182.541C110.322 181.7 107.896 180.793 105.542 179.823L105.732 179.36C103.309 178.362 100.962 177.297 98.6908 176.167L98.4681 176.615C96.117 175.445 93.8463 174.208 91.6558 172.904L91.9115 172.475C89.6657 171.138 87.5051 169.733 85.4298 168.263L85.1407 168.671C83.0043 167.157 80.9575 165.575 79.0002 163.927L79.3222 163.544C77.3332 161.87 75.4374 160.128 73.6348 158.322L73.2809 158.675C71.4385 156.829 69.6928 154.918 68.0439 152.944L68.4276 152.623C66.77 150.639 65.2107 148.592 63.7499 146.486L63.3391 146.771C61.8598 144.639 60.4808 142.447 59.2021 140.2L59.6367 139.953C58.364 137.717 57.1913 135.425 56.1186 133.082L55.664 133.29C54.5885 130.942 53.6131 128.543 52.7377 126.098L53.2085 125.93C52.3446 123.517 51.5786 121.059 50.9106 118.559L50.4276 118.688C49.7629 116.201 49.1948 113.674 48.7233 111.11L49.2151 111.02C48.7527 108.506 48.3837 105.956 48.1082 103.376L47.611 103.429C47.3385 100.876 47.157 98.2922 47.0669 95.6826L47.5666 95.6654C47.5222 94.3815 47.5 93.0911 47.5 91.7949C47.5 90.4929 47.5317 89.2253 47.5945 87.9908L47.0952 87.9654C47.2306 85.3002 47.5098 82.7853 47.9258 80.4076L48.4183 80.4938C48.8709 77.9068 49.4866 75.4862 50.2558 73.2142L49.7822 73.0538C50.622 70.5732 51.6438 68.265 52.8362 66.1071L53.2738 66.349C54.5002 64.1296 55.9096 62.0709 57.4899 60.1479L57.1036 59.8305C58.7008 57.887 60.4698 56.0815 62.3981 54.3891L62.7279 54.7649C64.5758 53.1431 66.5735 51.6244 68.7105 50.1868L68.4314 49.7719C70.4807 48.3933 72.6546 47.0905 74.9434 45.844L75.1825 46.2831C77.3392 45.1085 79.6 43.9834 81.9572 42.8913L81.747 42.4376C83.9847 41.4008 86.3071 40.3946 88.7069 39.4051L88.8975 39.8673C91.1822 38.9252 93.5383 37.9979 95.9599 37.0731L95.7816 36.606C98.0998 35.7207 100.477 34.8382 102.907 33.9479L103.079 34.4174C105.326 33.5946 107.618 32.765 109.953 31.9201L110.225 31.8218L110.054 31.3517C112.396 30.5041 114.78 29.6412 117.2 28.7546L117.372 29.224C119.719 28.3643 122.102 27.4821 124.515 26.5697L124.338 26.102C126.672 25.22 129.034 24.3099 131.422 23.3649L131.606 23.8298C133.934 22.9083 136.286 21.9535 138.66 20.9589L138.467 20.4977C140.778 19.5294 143.109 18.5234 145.457 17.474L145.661 17.9304C147.947 16.9081 150.25 15.8444 152.566 14.734L152.35 14.2831C154.607 13.2012 156.876 12.075 159.154 10.8992L159.384 11.3435C160.51 10.7623 161.639 10.169 162.77 9.56295C163.966 8.92206 165.153 8.31771 166.33 7.74913L166.113 7.29888C168.578 6.10841 171.004 5.07328 173.389 4.18649L173.563 4.65514C176.131 3.70028 178.65 2.91903 181.119 2.30218L180.998 1.81709C183.653 1.15391 186.251 0.678915 188.792 0.381279L188.85 0.877884C191.542 0.562682 194.166 0.448269 196.723 0.52119L196.737 0.0213934C199.442 0.0985238 202.072 0.383276 204.626 0.860461L204.534 1.35196C207.143 1.83942 209.672 2.52974 212.118 3.40647L212.287 2.93579C214.789 3.83265 217.205 4.92258 219.533 6.18823L219.295 6.6275C221.59 7.87531 223.799 9.29607 225.921 10.8732L226.219 10.472C228.326 12.0386 230.346 13.7574 232.277 15.6122L231.93 15.9727C233.807 17.776 235.599 19.7096 237.305 21.7585L237.689 21.4386C239.363 23.4501 240.953 25.5711 242.458 27.7874L242.044 28.0682C243.508 30.2248 244.89 32.4728 246.189 34.799L246.626 34.5552C247.906 36.8487 249.106 39.2171 250.223 41.6478L249.768 41.8565C250.86 44.2345 251.873 46.6728 252.805 49.1596L253.273 48.9842C254.198 51.4538 255.042 53.9705 255.806 56.5228L255.327 56.666C256.08 59.1859 256.753 61.7407 257.345 64.3193L257.832 64.2075C258.425 66.7881 258.936 69.3923 259.363 72.009L258.87 72.0896C259.296 74.698 259.64 77.3188 259.899 79.9407L260.396 79.8915Z" stroke="black" stroke-dasharray="8 8"/>
<path d="M170.185 78.9246L170.182 79.3181L170.564 79.4132L180.629 81.9228L181.662 84.553C181.188 90.094 180.062 95.4752 178.342 100.61L165.936 101.093L165.622 101.105L165.497 101.393C164.495 103.7 163.354 105.932 162.091 108.084L161.912 108.389L162.14 108.66L168.541 116.232L169.15 118.786C166.009 123.24 162.361 127.315 158.284 130.935L147.29 125.167L147.011 125.021L146.759 125.209C144.754 126.705 142.652 128.072 140.469 129.316L140.195 129.473L140.218 129.787L141.116 142.179C136.271 144.41 131.117 146.101 125.709 147.206L119.07 136.696L118.9 136.427L118.584 136.467C118.471 136.481 118.359 136.496 118.248 136.51C117.721 136.579 117.203 136.646 116.681 136.688L116.679 136.688C114.809 136.848 112.944 136.911 111.104 136.9L110.789 136.898L110.651 137.181L105.223 148.337C99.7187 147.846 94.3839 146.716 89.2831 145.013L88.5028 142.435L88.8765 132.698L88.8897 132.354L88.5732 132.219C86.2662 131.234 84.0306 130.095 81.8754 128.819L81.6028 128.657L81.3404 128.835L71.0489 135.8C66.5657 132.639 62.4487 128.966 58.8171 124.845L58.0524 122.118L64.6925 114.141L64.9455 113.838L64.708 113.521C63.2083 111.524 61.8347 109.431 60.5943 107.246L60.4384 106.971L60.1234 106.994L47.7098 107.892C45.4719 103.065 43.7789 97.9176 42.6708 92.5349L53.1948 85.9114L53.4666 85.7404L53.4241 85.4222C53.3378 84.7748 53.2578 84.1489 53.2007 83.5106C53.0402 81.647 52.98 79.794 52.9919 77.9482L52.994 77.6321L52.7094 77.4947L41.4155 72.0402C41.3879 71.9644 41.3531 71.8739 41.3146 71.7753C41.2673 71.6544 41.2199 71.5351 41.1697 71.4089C41.1088 71.2558 41.0439 71.0926 40.9703 70.9039C40.8452 70.5832 40.7229 70.259 40.6323 69.9869C40.587 69.8507 40.5518 69.7338 40.5284 69.6407C40.5102 69.5682 40.5035 69.5269 40.5012 69.5096C40.7519 66.7868 41.4083 64.7101 42.2258 62.6652C42.5 61.9795 42.7966 61.2881 43.1033 60.5732C43.6693 59.2536 44.2698 57.8538 44.8268 56.2619L57.2432 55.7754L57.5587 55.7631L57.6831 55.4729C58.6701 53.1711 59.8174 50.9443 61.0926 48.7964L61.255 48.5228L61.0761 48.2599L53.9327 37.7604L53.9095 37.6957C53.8811 37.6166 53.8407 37.5034 53.7923 37.3672C53.6955 37.0947 53.5673 36.731 53.4412 36.3649C53.3147 35.9978 53.1916 35.6322 53.1044 35.3546C53.0752 35.2613 53.0509 35.1811 53.0323 35.1157C54.5607 33.017 56.4778 31.6037 58.56 30.2628C59.0137 29.9707 59.4769 29.681 59.9457 29.3879C61.5807 28.3657 63.2835 27.301 64.8859 25.9382L75.8897 31.7101L76.1703 31.8573L76.4232 31.6664C78.4107 30.1661 80.5188 28.796 82.7089 27.5599L82.9849 27.4042L82.9618 27.0881L82.0574 14.7003C86.9002 12.4699 92.0608 10.7727 97.4618 9.67001L104.095 20.1715L104.264 20.4385L104.577 20.4009C104.682 20.3884 104.787 20.3758 104.891 20.3632C105.429 20.298 105.96 20.2338 106.502 20.1867C108.379 20.0261 110.229 19.9542 112.073 19.9706L112.389 19.9734L112.527 19.6889L117.944 8.52575C120.08 8.67714 122.132 8.52969 124.101 8.38823C124.659 8.34812 125.21 8.3085 125.755 8.2763C128.27 8.12765 130.677 8.13204 133.122 8.90317C133.14 8.96196 133.161 9.03261 133.184 9.11388C133.261 9.38708 133.356 9.75207 133.449 10.1204C133.541 10.4878 133.631 10.8545 133.697 11.1297C133.73 11.2672 133.758 11.3817 133.777 11.4618L133.796 11.5403L134.295 24.2147L134.308 24.53L134.598 24.6545C136.914 25.6486 139.148 26.7841 141.298 28.0485L141.57 28.2085L141.831 28.0317L152.13 21.0669C153.555 22.0468 154.896 22.8445 156.157 23.5949C156.838 23.9997 157.495 24.3908 158.13 24.7891C160.029 25.9806 161.801 27.2792 163.61 29.3136C163.614 29.3217 163.626 29.3446 163.644 29.389C163.674 29.4645 163.71 29.5681 163.75 29.6963C163.829 29.9517 163.914 30.2729 163.994 30.5954C164.054 30.8376 164.111 31.0747 164.16 31.2808C164.176 31.3488 164.191 31.4134 164.206 31.4738C164.228 31.5673 164.249 31.652 164.267 31.7219L158.422 42.8138L158.274 43.0944L158.465 43.3478C159.964 45.3373 161.343 47.4384 162.577 49.6247L162.732 49.9004L163.048 49.8776L175.467 48.9784C177.706 53.8048 179.406 58.9518 180.502 64.3332L169.989 70.9621L169.723 71.1296L169.759 71.4416C169.779 71.6174 169.799 71.79 169.82 71.9606C169.876 72.4321 169.931 72.8883 169.964 73.3554L169.965 73.3639C170.132 75.226 170.198 77.0814 170.185 78.9246ZM81.9719 81.0119L81.9719 81.0123C83.4003 97.3226 97.8187 109.406 114.168 107.978C130.517 106.561 142.614 92.1805 141.192 75.8567C139.778 59.5479 125.359 47.4714 109.003 48.8962C92.6545 50.3124 80.5566 64.6958 81.9719 81.0119Z" fill="#263238" stroke="#263238"/>
<path d="M180.642 81.779C180.157 87.2403 179.038 92.5448 177.341 97.61L164.935 98.0927L164.622 98.1049L164.496 98.3931C163.494 100.7 162.354 102.932 161.091 105.084L160.931 105.356L161.108 105.618L168.08 115.884C164.955 120.3 161.331 124.342 157.283 127.935L146.29 122.167L146.011 122.021L145.758 122.209C143.754 123.704 141.651 125.072 139.469 126.316L139.195 126.473L139.218 126.787L140.115 139.179C135.27 141.41 130.116 143.101 124.708 144.206L118.069 133.696L117.899 133.427L117.583 133.467C117.471 133.481 117.359 133.496 117.248 133.51C116.721 133.579 116.203 133.646 115.681 133.688L115.678 133.688C113.808 133.848 111.944 133.911 110.103 133.9L109.788 133.898L109.65 134.181L104.222 145.337C98.7478 144.849 93.4407 143.729 88.3648 142.04L87.8759 129.659L87.8635 129.343L87.5726 129.219C85.2656 128.234 83.0301 127.095 80.8748 125.819L80.6022 125.657L80.3398 125.835L70.0484 132.8C65.6278 129.684 61.5633 126.069 57.9692 122.018L63.75 111.055L63.8977 110.775L63.7075 110.521C62.2078 108.524 60.8342 106.431 59.5937 104.246L59.4378 103.971L59.1228 103.994L46.7093 104.891C44.4713 100.065 42.7784 94.9176 41.6702 89.5348L52.1943 82.9114L52.466 82.7404L52.4236 82.4221C52.3372 81.7747 52.2572 81.1488 52.2002 80.5105C52.0397 78.6469 51.9794 76.794 51.9914 74.9481L51.9934 74.6321L51.7088 74.4947L40.5282 69.0948C41.0197 63.626 42.1334 58.3265 43.8288 53.2618L56.2426 52.7754L56.5582 52.763L56.6826 52.4728C57.6696 50.1711 58.8169 47.9442 60.0921 45.7963L60.2545 45.5228L60.0756 45.2598L53.0909 34.9936C56.2089 30.5767 59.8341 26.5326 63.8887 22.9399L74.8892 28.7101L75.1698 28.8573L75.4227 28.6664C77.4102 27.1661 79.5183 25.7959 81.7083 24.5599L81.9843 24.4041L81.9613 24.088L81.0569 11.7002C85.8997 9.46986 91.0602 7.7727 96.4612 6.66996L103.095 17.1715L103.263 17.4384L103.577 17.4009C103.682 17.3884 103.786 17.3757 103.89 17.3632C104.429 17.298 104.96 17.2338 105.501 17.1866C107.379 17.026 109.229 16.9541 111.072 16.9705L111.389 16.9734L111.527 16.6889L116.942 5.529C122.41 6.02525 127.731 7.14398 132.807 8.83604L133.295 21.2147L133.307 21.53L133.597 21.6544C135.913 22.6485 138.148 23.7841 140.297 25.0484L140.569 25.2085L140.831 25.0316L151.127 18.0682C155.549 21.1927 159.606 24.8101 163.2 28.8479L157.421 39.8138L157.273 40.0944L157.464 40.3477C158.963 42.3373 160.342 44.4383 161.576 46.6246L161.732 46.9004L162.048 46.8775L174.467 45.9784C176.706 50.8047 178.406 55.9517 179.501 61.3331L168.988 67.9621L168.723 68.1295L168.758 68.4415C168.778 68.6174 168.799 68.79 168.819 68.9606C168.876 69.432 168.93 69.8883 168.964 70.3554L168.965 70.3638C169.131 72.226 169.197 74.0814 169.185 75.9246L169.182 76.2407L169.467 76.3782L180.642 81.779ZM80.9713 78.0118L80.9714 78.0123C82.3997 94.3225 96.8182 106.405 113.168 104.978C129.517 103.561 141.614 89.1805 140.192 72.8566C138.777 56.5479 124.358 44.4714 108.003 45.8961C91.654 47.3124 79.5561 61.6957 80.9713 78.0118Z" fill="white" stroke="#263238"/>
<path d="M250.65 91.1838C250.65 91.1838 249.872 88.2512 249.5 88C247.885 86.9076 246.232 86.6785 244.531 86.4428C243.222 86.2613 241.885 86.0759 240.515 85.4893M250.65 91.1838L254.039 163.25C252.496 165.096 250.783 166.84 248.922 168.453L251.571 177.33M250.65 91.1838L248.187 100.107C250.046 101.649 251.786 103.357 253.404 105.219L262.301 102.566M250.65 91.1838L250.166 91.3119L250.166 91.3116L250.166 91.3102L250.164 91.3043L250.158 91.2805L250.133 91.1887C250.132 91.1866 250.132 91.1845 250.131 91.1823M250.65 91.1838L250.168 91.0507L250.131 91.1823M250.65 91.1838L272.625 128.229M240.515 85.4893L234.126 92.2315C231.824 91.4363 229.462 90.8313 227.068 90.4154L224.707 81.4359M240.515 85.4893L240.318 85.949C240.427 85.9954 240.535 86.0394 240.643 86.0812M240.515 85.4893L240.878 85.8333L240.643 86.0812M224.707 81.4359C220.859 81.064 216.967 81.1054 213.1 81.5793M224.707 81.4359L224.223 81.5631L224.312 81.9012M224.707 81.4359L224.659 81.9336C224.543 81.9224 224.428 81.9116 224.312 81.9012M213.1 81.5793L210.924 90.5737C208.557 91.0318 206.216 91.6971 203.907 92.552L197.38 85.9632M213.1 81.5793L213.161 82.0756C213.275 82.0616 213.39 82.0479 213.504 82.0347M213.1 81.5793L213.586 81.6968L213.504 82.0347M197.38 85.9632C195.64 86.7479 193.895 87.6313 192.209 88.6373C190.523 89.6288 188.911 90.7119 187.371 91.8536M197.38 85.9632L197.025 86.3151L197.27 86.5625M197.38 85.9632L197.585 86.419C197.48 86.4665 197.375 86.5143 197.27 86.5625M187.371 91.8536L190.021 100.747C188.162 102.363 186.448 104.096 184.903 105.948L175.959 103.498M187.371 91.8536L187.669 92.2552C187.763 92.1858 187.857 92.1166 187.951 92.0476M187.371 91.8536L187.851 91.7108L187.951 92.0476M175.959 103.498C175.003 104.825 173.945 105.675 172.931 106.49C171.603 107.557 170.351 108.563 169.5 110.5C168.746 110.5 169.585 112.193 170.022 113.075C170.165 113.363 170.265 113.564 170.253 113.593M175.959 103.498L175.827 103.98L176.156 104.071M175.959 103.498L176.364 103.79C176.296 103.886 176.226 103.979 176.156 104.071M170.253 113.593L177.003 119.973C176.207 122.272 175.618 124.629 175.196 127.018L166.206 129.372M170.253 113.593L170.712 113.791C170.755 113.69 170.754 113.602 170.753 113.568C170.752 113.525 170.745 113.49 170.741 113.469C170.732 113.427 170.719 113.391 170.711 113.368C170.706 113.353 170.699 113.337 170.693 113.321M170.253 113.593L170.596 113.229L170.693 113.321M166.206 129.372C166.091 130.531 165.936 131.478 165.794 132.353C165.502 134.134 165.26 135.619 165.5 138C165.517 138.165 165.723 138.855 165.926 139.532C166.118 140.176 166.308 140.81 166.326 140.967M166.206 129.372L166.333 129.855L166.667 129.768M166.206 129.372L166.704 129.421C166.692 129.539 166.68 129.654 166.667 129.768M166.326 140.967L175.358 143.11C175.819 145.482 176.48 147.822 177.324 150.139L170 154M166.326 140.967L166.823 140.908C166.813 140.826 166.783 140.698 166.744 140.552M166.326 140.967L166.442 140.48L166.744 140.552M170 154L170.721 156.643M170 154L170.234 154.442L170.588 154.255M170 154L170.483 153.868L170.588 154.255M170.721 156.643C171.511 158.395 172.399 160.112 173.403 161.788C174.407 163.479 175.484 165.093 176.635 166.624M170.721 156.643L171.204 156.511L171.193 156.473M170.721 156.643L171.177 156.437C171.182 156.449 171.188 156.461 171.193 156.473M176.635 166.624L185.544 163.978C187.158 165.833 188.911 167.541 190.757 169.081C190.757 169.081 187 174 187.5 175.5C188 177 188.307 178.014 188.307 178.014M176.635 166.624L177.034 166.324C176.965 166.231 176.896 166.139 176.827 166.046M176.635 166.624L176.492 166.145L176.827 166.046M188.307 178.014C191.486 180.28 194.87 182.19 198.416 183.693M188.307 178.014L188.786 177.869L188.786 177.869L188.786 177.869L188.785 177.866L188.782 177.857L188.771 177.822L188.735 177.705M188.307 178.014L188.597 177.607C188.643 177.64 188.689 177.672 188.735 177.705M198.416 183.693L204.819 176.963C207.128 177.765 209.468 178.362 211.883 178.771L214.236 187.749M198.416 183.693L198.611 183.233C198.505 183.188 198.399 183.143 198.293 183.097M198.416 183.693L198.054 183.349L198.293 183.097M214.236 187.749C218.078 188.112 221.978 188.088 225.857 187.625M214.236 187.749L214.72 187.622L214.631 187.283M214.236 187.749L214.284 187.251C214.399 187.262 214.515 187.272 214.631 187.283M225.857 187.625L228.005 178.619C230.379 178.161 232.727 177.495 235.035 176.642L241.585 183.234M225.857 187.625L225.798 187.128C225.683 187.142 225.567 187.156 225.452 187.169M225.857 187.625L225.371 187.509L225.452 187.169M241.585 183.234C243.324 182.454 245.049 181.559 246.736 180.562C248.427 179.566 250.026 178.486 251.571 177.33M241.585 183.234L241.939 182.882L241.695 182.636M241.585 183.234L241.38 182.778C241.485 182.731 241.59 182.684 241.695 182.636M251.571 177.33L251.271 176.93C251.178 176.999 251.085 177.069 250.991 177.138M251.571 177.33L251.091 177.473L250.991 177.138M250.991 177.138L248.443 168.596L248.351 168.286L248.595 168.075C250.436 166.479 252.13 164.754 253.656 162.929L253.862 162.683L254.171 162.768L262.785 165.123C264.912 162.118 266.712 158.922 268.145 155.588L267.096 152.842L261.68 149.641L261.328 149.433L261.461 149.047C262.243 146.788 262.851 144.463 263.261 142.092L263.316 141.775L263.627 141.694L272.279 139.438M250.991 177.138C249.547 178.206 248.054 179.205 246.482 180.131L246.481 180.131C244.912 181.059 243.31 181.897 241.695 182.636M241.695 182.636L235.39 176.29L235.164 176.062L234.862 176.173C232.578 177.017 230.256 177.676 227.911 178.128L227.594 178.189L227.519 178.503L225.452 187.169M225.452 187.169C221.841 187.575 218.212 187.599 214.631 187.283M214.631 187.283L212.366 178.644L212.284 178.331L211.966 178.278C209.578 177.873 207.265 177.283 204.983 176.491L204.679 176.385L204.457 176.619L198.293 183.097M198.293 183.097C194.949 181.652 191.751 179.84 188.735 177.705M188.735 177.705L188.729 177.685C188.692 177.565 188.638 177.391 188.568 177.169C188.428 176.726 188.226 176.095 187.975 175.342C187.952 175.273 187.94 175.132 187.987 174.89C188.033 174.657 188.126 174.376 188.259 174.058C188.527 173.421 188.934 172.691 189.366 171.991C189.797 171.294 190.245 170.642 190.585 170.162C190.755 169.923 190.898 169.728 190.998 169.592C191.048 169.525 191.088 169.472 191.114 169.437L191.145 169.397L191.152 169.387L191.154 169.385L191.154 169.384L191.154 169.384L191.445 169.003L191.077 168.697C189.251 167.174 187.517 165.485 185.922 163.65L185.71 163.407L185.402 163.499L176.827 166.046M176.827 166.046C175.765 164.612 174.767 163.106 173.833 161.533L173.832 161.531C172.846 159.885 171.972 158.196 171.193 156.473M171.193 156.473L170.588 154.255M170.588 154.255L177.558 150.581L177.943 150.377L177.794 149.967C176.958 147.674 176.305 145.359 175.848 143.015L175.787 142.698L175.473 142.624L166.744 140.552M166.744 140.552C166.72 140.464 166.693 140.369 166.667 140.275C166.593 140.017 166.499 139.703 166.405 139.39L166.39 139.34C166.291 139.009 166.194 138.682 166.119 138.418C166.082 138.286 166.051 138.173 166.029 138.085C166.007 137.997 165.999 137.957 165.998 137.951C165.998 137.95 165.998 137.95 165.998 137.95C165.823 136.222 165.91 134.986 166.083 133.743C166.141 133.33 166.21 132.906 166.283 132.457C166.413 131.661 166.556 130.789 166.667 129.768M166.667 129.768L175.323 127.501L175.633 127.42L175.689 127.105C176.107 124.739 176.689 122.408 177.475 120.137L177.581 119.832L177.346 119.61L170.693 113.321M170.693 113.321C170.679 113.286 170.663 113.251 170.648 113.218C170.603 113.121 170.541 112.995 170.473 112.858L170.463 112.839C170.316 112.542 170.134 112.172 169.981 111.809C169.843 111.481 169.747 111.199 169.712 111M169.712 111H169.827L169.958 110.701C170.66 109.102 171.65 108.178 172.781 107.254C172.931 107.131 173.084 107.008 173.24 106.883C174.184 106.126 175.213 105.299 176.156 104.071M169.712 111C169.707 110.971 169.703 110.944 169.701 110.918C169.695 110.86 169.699 110.836 169.699 110.836C169.699 110.836 169.696 110.852 169.682 110.876C169.661 110.912 169.625 110.951 169.576 110.977C169.531 111 169.499 111 169.5 111H169.712ZM176.156 104.071L184.77 106.43L185.08 106.515L185.286 106.268C186.814 104.438 188.508 102.724 190.349 101.124L190.592 100.913L190.5 100.604L187.951 92.0476M187.951 92.0476C189.392 90.9915 190.895 89.9896 192.462 89.0684L192.465 89.0667C194.03 88.133 195.649 87.3046 197.27 86.5625M197.27 86.5625L203.552 92.9039L203.779 93.1327L204.081 93.0209C206.366 92.1748 208.68 91.5172 211.019 91.0645L211.335 91.0035L211.41 90.6912L213.504 82.0347M213.504 82.0347C217.106 81.6176 220.727 81.5783 224.312 81.9012M224.312 81.9012L226.585 90.5426L226.666 90.8531L226.983 90.908C229.35 91.3194 231.687 91.9178 233.963 92.7041L234.267 92.8093L234.489 92.5754L240.643 86.0812M240.643 86.0812C241.966 86.5932 243.261 86.7721 244.469 86.939C244.663 86.9658 244.855 86.9924 245.044 87.0199C246.511 87.2332 247.863 87.5086 249.182 88.3887M249.182 88.3887C249.191 88.4017 249.203 88.421 249.217 88.4483C249.261 88.5283 249.314 88.6435 249.373 88.7905C249.491 89.0828 249.618 89.4584 249.737 89.8363C249.856 90.2122 249.963 90.5815 250.041 90.8575C250.079 90.9916 250.11 91.1032 250.131 91.1823M249.182 88.3887C249.195 88.3972 249.208 88.4057 249.22 88.4142C249.176 88.384 249.161 88.3586 249.173 88.3746C249.175 88.378 249.178 88.3826 249.182 88.3887ZM250.131 91.1823L247.705 99.9743L247.619 100.286L247.868 100.492C249.705 102.015 251.426 103.705 253.026 105.547L253.238 105.79L253.546 105.698L262.112 103.145M262.112 103.145C262.335 103.438 262.591 103.773 262.867 104.133C264.135 105.786 265.816 107.978 266.57 109.254L266.571 109.256C267.041 110.046 267.333 110.887 267.507 111.538C267.594 111.862 267.65 112.135 267.685 112.325C267.688 112.343 267.691 112.361 267.694 112.377M262.112 103.145L262.444 103.045L262.301 102.566M262.112 103.145C262.038 103.047 261.968 102.955 261.902 102.867L262.301 102.566M267.694 112.377L261.268 118.704L261.038 118.93L261.149 119.232C261.984 121.515 262.647 123.843 263.116 126.176L263.203 126.608L263.642 126.576L271.176 126.025M267.694 112.377L267.877 112.198L268.228 112.554M267.694 112.377C267.707 112.448 267.716 112.504 267.721 112.544C267.725 112.568 267.728 112.587 267.729 112.599L267.731 112.611L267.731 112.614C267.731 112.614 267.731 112.613 267.743 112.612C267.771 112.609 267.872 112.596 268.228 112.554M271.176 126.025L272.136 128.356M271.176 126.025L271.537 125.999L271.5 125.5M271.176 126.025L271.038 125.69L271.5 125.5M272.136 128.356C272.572 132.06 272.613 135.762 272.279 139.438M272.136 128.356L272.163 128.42L272.625 128.229M272.136 128.356C272.134 128.334 272.131 128.311 272.128 128.288L272.625 128.229M272.279 139.438L272.618 139.35L272.744 139.833L272.246 139.785C272.257 139.669 272.268 139.554 272.279 139.438ZM272.625 128.229L271.5 125.5M271.5 125.5L263.606 126.077C263.132 123.718 262.462 121.366 261.619 119.06L268.228 112.554M268.228 112.554C268.228 112.554 268.004 110.685 267 109C266.229 107.694 264.514 105.459 263.246 103.805C262.884 103.333 262.558 102.908 262.301 102.566M230.078 151.844L230.078 151.844C239.93 146.028 243.192 133.342 237.364 123.512L237.364 123.511C231.464 113.575 218.515 110.348 208.616 116.463C199.318 122.206 196.096 134.703 201.473 144.205L201.473 144.205C207.204 154.315 220.098 157.729 230.078 151.844Z" fill="#263238" stroke="#263238"/>
<path d="M240.584 180.234C242.324 179.454 244.049 178.559 245.735 177.562C247.427 176.566 249.026 175.486 250.57 174.33M240.584 180.234L240.939 179.882L240.694 179.636M240.584 180.234L234.035 173.642L261.301 99.5663M240.584 180.234L240.38 179.778C240.485 179.731 240.59 179.684 240.694 179.636M240.694 179.636C242.31 178.897 243.912 178.059 245.481 177.131L245.482 177.131C247.054 176.205 248.546 175.206 249.991 174.138M240.694 179.636L234.39 173.29L234.163 173.062L233.862 173.173C231.577 174.017 229.256 174.676 226.911 175.128L226.594 175.189L226.519 175.503L224.452 184.169M249.991 174.138L250.091 174.473L250.57 174.33M249.991 174.138C250.084 174.069 250.178 173.999 250.271 173.93L250.57 174.33M249.991 174.138L247.443 165.596L247.35 165.286L247.594 165.075C249.435 163.479 251.129 161.754 252.656 159.929L252.861 159.683L253.171 159.768L261.785 162.123M250.57 174.33L247.922 165.453C249.783 163.84 251.495 162.096 253.039 160.25L261.99 162.697M261.785 162.123C261.718 162.217 261.651 162.312 261.583 162.406L261.99 162.697M261.785 162.123L262.122 162.215L261.99 162.697M261.785 162.123C263.883 159.158 265.663 156.008 267.087 152.722M261.99 162.697C264.264 159.526 266.178 156.139 267.684 152.599M267.684 152.599L267.34 152.962L267.087 152.722M267.684 152.599L260.934 146.211C261.724 143.927 262.338 141.576 262.753 139.178L271.743 136.833M267.684 152.599L267.224 152.403C267.178 152.51 267.133 152.616 267.087 152.722M267.087 152.722L260.59 146.574L260.356 146.352L260.461 146.047C261.243 143.788 261.85 141.463 262.26 139.092L262.315 138.775L262.627 138.694L271.278 136.438M271.278 136.438C271.268 136.554 271.257 136.669 271.246 136.785L271.743 136.833M271.278 136.438L271.617 136.35L271.743 136.833M271.278 136.438C271.605 132.854 271.573 129.246 271.168 125.635M271.743 136.833C272.118 132.985 272.085 129.109 271.625 125.229M271.625 125.229L271.508 125.716L271.168 125.635M271.625 125.229L262.605 123.077C262.132 120.718 261.462 118.366 260.618 116.06L267.227 109.554M271.625 125.229L271.128 125.288C271.142 125.404 271.155 125.519 271.168 125.635M271.168 125.635L262.489 123.564L262.178 123.489L262.115 123.176C261.647 120.843 260.984 118.515 260.149 116.232L260.038 115.93L260.267 115.704L266.627 109.443M266.627 109.443C266.676 109.549 266.724 109.655 266.772 109.76L267.227 109.554M266.627 109.443C265.876 107.818 265.036 106.215 264.103 104.649L264.103 104.647C263.18 103.086 262.178 101.587 261.109 100.145M266.627 109.443L266.876 109.198L267.227 109.554M267.227 109.554L261.109 100.145M261.109 100.145L261.444 100.045L261.301 99.5663M261.109 100.145L264.533 104.393C263.541 102.714 262.459 101.108 261.301 99.5663M261.109 100.145L252.546 102.698L252.237 102.79L252.026 102.547C250.426 100.705 248.705 99.0155 246.867 97.4922L246.618 97.2859L246.704 96.9743L249.074 88.3891M261.109 100.145C261.04 100.052 260.971 99.9593 260.901 99.8667L261.301 99.5663M224.452 184.169C220.84 184.575 217.211 184.599 213.631 184.283M224.452 184.169C224.567 184.156 224.682 184.142 224.798 184.128L224.857 184.625L224.37 184.509L224.452 184.169ZM213.631 184.283L211.366 175.644L211.284 175.331L210.966 175.278C208.578 174.873 206.265 174.283 203.982 173.491L203.678 173.385L203.456 173.619L197.293 180.097M213.631 184.283L213.72 184.622L213.236 184.749L213.283 184.251C213.399 184.262 213.515 184.272 213.631 184.283ZM197.293 180.097C194.003 178.675 190.854 176.898 187.882 174.809M197.293 180.097C197.399 180.143 197.505 180.188 197.611 180.233L197.416 180.693L197.053 180.349L197.293 180.097ZM187.882 174.809L190.239 166.213L190.324 165.903L190.077 165.697C188.251 164.174 186.517 162.485 184.921 160.65L184.71 160.407L184.402 160.499L175.826 163.046M187.882 174.809L187.789 175.146L187.307 175.014L187.597 174.607C187.692 174.675 187.787 174.742 187.882 174.809ZM175.826 163.046C174.765 161.612 173.767 160.106 172.833 158.533L172.832 158.531C171.899 156.974 171.067 155.38 170.321 153.754M175.826 163.046C175.895 163.139 175.965 163.231 176.034 163.324L175.634 163.624L175.492 163.145L175.826 163.046ZM170.321 153.754L176.675 147.495L176.904 147.269L176.794 146.967C175.958 144.674 175.304 142.359 174.848 140.015L174.786 139.698L174.473 139.624L165.782 137.561M170.321 153.754L170.072 153.999L169.721 153.643L170.177 153.437C170.224 153.543 170.272 153.648 170.321 153.754ZM165.782 137.561C165.376 133.957 165.34 130.343 165.67 126.767M165.782 137.561C165.795 137.677 165.809 137.792 165.823 137.908L165.326 137.967L165.442 137.48L165.782 137.561ZM165.67 126.767L174.323 124.501L174.633 124.42L174.688 124.105C175.106 121.739 175.688 119.408 176.475 117.137L176.581 116.832L176.346 116.61L169.851 110.47M165.67 126.767L165.332 126.855L165.206 126.372L165.703 126.421C165.692 126.536 165.681 126.652 165.67 126.767ZM169.851 110.47C171.292 107.182 173.062 104.031 175.162 101.072M169.851 110.47C169.804 110.577 169.757 110.684 169.711 110.791L169.252 110.593L169.596 110.229L169.851 110.47ZM175.162 101.072L183.77 103.43L184.08 103.515L184.286 103.268C185.813 101.438 187.508 99.7243 189.348 98.1242L189.591 97.9128L189.499 97.6041L186.951 89.0476M175.162 101.072L174.826 100.98L174.958 100.498L175.364 100.79C175.297 100.884 175.229 100.978 175.162 101.072ZM186.951 89.0476C188.392 87.9915 189.895 86.9896 191.462 86.0684L191.465 86.0667C193.03 85.133 194.649 84.3046 196.269 83.5625M186.951 89.0476C186.856 89.1166 186.762 89.1858 186.669 89.2552L186.371 88.8536L186.85 88.7108L186.951 89.0476ZM196.269 83.5625L202.552 89.9039L202.779 90.1327L203.081 90.0209C205.365 89.1748 207.68 88.5172 210.019 88.0645L210.335 88.0035L210.41 87.6912L212.504 79.0347M196.269 83.5625L196.024 83.3151L196.379 82.9632L196.585 83.419C196.48 83.4665 196.375 83.5143 196.269 83.5625ZM212.504 79.0347C216.105 78.6176 219.727 78.5783 223.312 78.9012M212.504 79.0347C212.389 79.0479 212.275 79.0616 212.16 79.0756L212.1 78.5793L212.586 78.6968L212.504 79.0347ZM223.312 78.9012L225.584 87.5426L225.666 87.8531L225.982 87.908C228.35 88.3194 230.686 88.9178 232.962 89.7041L233.267 89.8093L233.488 89.5754L239.637 83.0869M223.312 78.9012L223.223 78.5631L223.706 78.4359L223.658 78.9336C223.543 78.9224 223.427 78.9116 223.312 78.9012ZM239.637 83.0869C242.94 84.5265 246.097 86.2965 249.074 88.3891M239.637 83.0869C239.531 83.0406 239.424 82.9946 239.318 82.949L239.515 82.4893L239.877 82.8333L239.637 83.0869ZM249.074 88.3891L249.167 88.0507L249.649 88.1838L249.359 88.5909C249.264 88.5233 249.169 88.456 249.074 88.3891ZM200.473 141.205C206.061 151.062 218.457 154.554 228.323 149.268V149.289L229.077 148.844C238.929 143.028 242.191 130.342 236.364 120.512L236.364 120.511C230.463 110.575 217.515 107.348 207.616 113.463C198.317 119.206 195.095 131.703 200.473 141.205L200.473 141.205Z" fill="white" stroke="#263238"/>
<path d="M110.589 116.495C87.8912 116.495 69.4336 98.0743 69.4336 75.4359C69.4336 52.7986 87.898 34.3768 110.589 34.3768C133.279 34.3768 151.738 52.7974 151.738 75.4359C151.738 98.0744 133.286 116.495 110.589 116.495Z" stroke="#263238"/>
<path d="M184.396 130.877L184.396 130.876C184.785 112.132 200.39 97.1967 219.187 97.5902L219.187 97.5902C237.977 97.9821 252.941 113.556 252.553 132.305C252.157 151.051 236.554 165.986 217.757 165.591C198.967 165.199 184 149.624 184.396 130.877Z" stroke="#263238"/>
</svg>
