<svg width="224" height="190" viewBox="0 0 224 190" fill="none" xmlns="http://www.w3.org/2000/svg">
<path d="M223.989 91.7949C223.989 146.032 161.701 190 125.534 190C48.6787 190 10 146.032 10 91.7949C10 37.5577 64.753 41.6903 125.534 9.12223C186.315 -23.4458 223.989 37.5577 223.989 91.7949Z" fill="#42B1FF"/>
<path d="M0.591911 110.108C0.330436 107.462 0.154701 104.814 0.0663682 102.176L0.566093 102.16C0.521843 100.838 0.499611 99.5197 0.499611 98.2051C0.499611 96.811 0.541054 95.4236 0.622445 94.0436L0.123299 94.0142C0.288674 91.2098 0.617791 88.4358 1.09803 85.6971L1.59052 85.7834C2.07052 83.046 2.70262 80.3435 3.47419 77.6807L2.99395 77.5415C3.77067 74.8609 4.68768 72.2209 5.7321 69.6263L6.19592 69.8131C7.23039 67.2432 8.39083 64.7177 9.66476 62.2412L9.22015 62.0125C10.4944 59.5354 11.8813 57.1077 13.3683 54.7343L13.792 54.9998C15.2644 52.6496 16.8356 50.3525 18.4936 48.1131L18.0918 47.8155C19.7517 45.5735 21.4979 43.3895 23.318 41.2681L23.6974 41.5937C25.5095 39.4818 27.3954 37.4319 29.3431 35.4489L28.9863 35.0986C30.9483 33.101 32.9724 31.1711 35.0464 29.3137L35.38 29.6862C37.4638 27.8199 39.5981 26.0271 41.7705 24.3123L41.4607 23.9199C43.6702 22.1759 45.9187 20.5126 48.1931 18.9348L48.4781 19.3457C50.7896 17.7422 53.1278 16.2276 55.4788 14.8072L55.2202 14.3793C57.6498 12.9114 60.0931 11.5436 62.535 10.2816L62.7646 10.7258C65.2876 9.42197 67.8084 8.23191 70.3101 7.16202L70.1135 6.70229C72.751 5.5743 75.3681 4.57895 77.9451 3.72376L78.1026 4.19832C80.8312 3.29277 83.5128 2.54583 86.1237 1.96605L86.0153 1.47794C88.8621 0.845784 91.6278 0.410512 94.2822 0.183583L94.3248 0.681752C95.7359 0.561116 97.114 0.500036 98.4545 0.500036C99.7658 0.500036 101.066 0.512869 102.355 0.538366L102.365 0.0384576C104.996 0.0905056 107.582 0.195212 110.121 0.351141L110.09 0.850195C112.709 1.01105 115.279 1.22655 117.798 1.49512L117.851 0.997932C120.467 1.27668 123.029 1.61242 125.538 2.00344L125.461 2.49749C128.061 2.90279 130.604 3.36762 133.089 3.88998L133.192 3.40067C135.772 3.94299 138.291 4.54714 140.748 5.21101L140.618 5.6937C143.148 6.37731 145.612 7.12437 148.01 7.93243L148.17 7.4586C150.666 8.29974 153.092 9.20686 155.447 10.1772L155.256 10.6395C157.679 11.6379 160.026 12.7034 162.297 13.833L162.52 13.3853C164.871 14.5546 167.142 15.7925 169.332 17.0957L169.077 17.5254C171.323 18.8616 173.483 20.2666 175.559 21.7369L175.848 21.3289C177.984 22.8425 180.031 24.4252 181.988 26.0731L181.666 26.4556C183.655 28.1302 185.551 29.8724 187.354 31.6782L187.707 31.325C189.55 33.1706 191.295 35.0825 192.944 37.0562L192.561 37.3768C194.218 39.3609 195.778 41.408 197.238 43.5136L197.649 43.2285C199.129 45.3607 200.508 47.5525 201.786 49.7996L201.352 50.0469C202.624 52.2835 203.797 54.5752 204.87 56.9177L205.324 56.7095C206.4 59.0578 207.375 61.4567 208.251 63.9017L207.78 64.0702C208.644 66.4831 209.41 68.9414 210.078 71.4408L210.561 71.3117C211.225 73.7989 211.794 76.3262 212.265 78.8895L211.773 78.9799C212.236 81.4942 212.605 84.0436 212.88 86.6241L213.377 86.571C213.65 89.1244 213.831 91.7078 213.921 94.3174L213.422 94.3346C213.466 95.6185 213.488 96.9089 213.488 98.2051C213.488 99.5071 213.457 100.775 213.394 102.009L213.893 102.035C213.758 104.7 213.479 107.215 213.063 109.592L212.57 109.506C212.117 112.093 211.502 114.514 210.732 116.786L211.206 116.946C210.366 119.427 209.344 121.735 208.152 123.893L207.714 123.651C206.488 125.87 205.079 127.929 203.498 129.852L203.885 130.17C202.288 132.113 200.518 133.918 198.59 135.611L198.26 135.235C196.412 136.857 194.415 138.376 192.278 139.813L192.557 140.228C190.508 141.607 188.334 142.91 186.045 144.156L185.806 143.717C183.649 144.891 181.388 146.017 179.031 147.109L179.241 147.562C177.004 148.599 174.681 149.605 172.281 150.595L172.091 150.133C169.806 151.075 167.45 152.002 165.028 152.927L165.207 153.394C162.888 154.279 160.511 155.162 158.081 156.052L157.909 155.583C155.662 156.405 153.37 157.235 151.035 158.08L150.764 158.178L150.934 158.648C148.592 159.496 146.208 160.359 143.788 161.245L143.616 160.776C141.269 161.636 138.887 162.518 136.473 163.43L136.65 163.898C134.317 164.78 131.954 165.69 129.567 166.635L129.383 166.17C127.055 167.092 124.702 168.047 122.328 169.041L122.521 169.502C120.21 170.471 117.879 171.477 115.532 172.526L115.328 172.07C113.041 173.092 110.738 174.156 108.422 175.266L108.638 175.717C106.382 176.799 104.113 177.925 101.834 179.101L101.605 178.656C100.478 179.238 99.3493 179.831 98.2183 180.437C97.0222 181.078 95.8354 181.682 94.6579 182.251L94.8754 182.701C92.41 183.892 89.9844 184.927 87.5994 185.813L87.4252 185.345C84.8571 186.3 82.338 187.081 79.869 187.698L79.9902 188.183C77.3357 188.846 74.7371 189.321 72.196 189.619L72.1378 189.122C69.4467 189.437 66.8219 189.552 64.2651 189.479L64.2509 189.979C61.5465 189.901 58.9162 189.617 56.3622 189.14L56.454 188.648C53.845 188.161 51.3163 187.47 48.8703 186.594L48.7016 187.064C46.1994 186.167 43.783 185.077 41.455 183.812L41.6938 183.372C39.3985 182.125 37.1889 180.704 35.0675 179.127L34.7692 179.528C32.662 177.961 30.642 176.243 28.7117 174.388L29.0581 174.027C27.1814 172.224 25.3891 170.29 23.6837 168.241L23.2995 168.561C21.6252 166.55 20.0348 164.429 18.5305 162.213L18.9442 161.932C17.4803 159.775 16.0979 157.527 14.799 155.201L14.3624 155.445C13.0818 153.151 11.8823 150.783 10.7658 148.352L11.2201 148.143C10.1278 145.766 9.11512 143.327 8.18378 140.84L7.71553 141.016C6.79064 138.546 5.94584 136.029 5.18274 133.477L5.66178 133.334C4.90842 130.814 4.23501 128.259 3.64321 125.681L3.15587 125.793C2.5636 123.212 2.05279 120.608 1.62502 117.991L2.11848 117.91C1.69205 115.302 1.34852 112.681 1.08948 110.059L0.591911 110.108Z" stroke="black" stroke-dasharray="8 8"/>
<mask id="mask0_469_416" style="mask-type:alpha" maskUnits="userSpaceOnUse" x="10" y="2" width="214" height="188">
<path d="M223.989 91.7948C223.989 146.032 161.701 190 125.534 190C48.6787 190 10 146.032 10 91.7948C10 37.5577 125.534 9.12221 125.534 9.12221L209.924 2.74231C219.027 8.86386 223.989 17.4141 223.989 25.6567C224.014 26.6607 223.989 90.7948 223.989 91.7948Z" fill="#0096FF"/>
</mask>
<g mask="url(#mask0_469_416)">
<rect x="30.583" y="175.469" width="23.1114" height="24.0523" rx="7.5" fill="#263238" stroke="#263238"/>
<rect x="62.7314" y="162.441" width="23.1114" height="37.0795" rx="7.5" fill="#263238" stroke="#263238"/>
<rect x="94.8809" y="141.397" width="23.1114" height="58.1235" rx="7.5" fill="#263238" stroke="#263238"/>
<rect x="127.029" y="116.345" width="23.1114" height="83.1758" rx="7.5" fill="#263238" stroke="#263238"/>
<rect x="159.178" y="86.2823" width="23.1114" height="113.239" rx="7.5" fill="#263238" stroke="#263238"/>
<rect x="191.326" y="54.2153" width="23.1114" height="145.305" rx="7.5" fill="#263238" stroke="#263238"/>
<rect x="28.5928" y="175.469" width="23.1114" height="24.0523" rx="5.5" fill="white" stroke="#263238"/>
<rect x="60.7412" y="162.441" width="23.1114" height="37.0795" rx="5.5" fill="white" stroke="#263238"/>
<rect x="92.8896" y="141.397" width="23.1114" height="58.1235" rx="5.5" fill="white" stroke="#263238"/>
<rect x="125.038" y="116.345" width="23.1114" height="83.1758" rx="5.5" fill="white" stroke="#263238"/>
<rect x="157.187" y="86.2823" width="23.1114" height="113.239" rx="5.5" fill="white" stroke="#263238"/>
<rect x="189.335" y="54.2153" width="23.1114" height="145.305" rx="5.5" fill="white" stroke="#263238"/>
<path d="M207.973 11.9796C208.129 12.3078 208.161 12.6813 208.062 13.0307L199.526 43.1405C199.189 44.3303 197.634 44.6223 196.885 43.6364L195.45 41.7475C194.539 40.5484 192.788 40.3937 191.703 41.4575C183.804 49.2013 147.855 84.0134 106.05 117.698C70.5586 146.295 34.3582 162.451 18.4582 168.747C18.2847 168.816 18.1629 168.802 18.0861 168.773C18.0049 168.743 17.9404 168.683 17.9019 168.606C17.8632 168.529 17.8531 168.44 17.8776 168.354C17.9008 168.273 17.9636 168.166 18.1218 168.066C33.0318 158.727 67.5615 136.419 100.331 110.334C139.733 78.9693 177.216 36.1885 183.748 28.6191C184.498 27.7509 184.54 26.4995 183.882 25.5719L180.5 20.8052C180.321 20.552 180.224 20.2494 180.224 19.9393L180.223 16.8846C180.222 16.2165 180.665 15.6292 181.309 15.4447L204.998 8.65178C205.704 8.44922 206.454 8.78701 206.769 9.44993L207.973 11.9796Z" fill="#263238" stroke="#263238"/>
<path d="M204.526 7.94705C205.655 7.63062 206.696 8.67201 206.377 9.79877L198.61 37.1981C198.272 38.388 196.718 38.6799 195.969 37.6941L194.534 35.8052C193.623 34.6061 191.872 34.4514 190.787 35.5152C182.888 43.259 146.939 78.071 105.134 111.756C69.9812 140.079 34.8057 160.565 18.9958 169.25C18.831 169.34 18.71 169.34 18.6329 169.32C18.5508 169.299 18.4794 169.247 18.4312 169.172C18.3449 169.037 18.3206 168.804 18.5928 168.588C33.3178 156.913 66.8918 130.281 99.4148 104.392C138.816 73.027 176.3 30.2462 182.832 22.6768C183.581 21.8086 183.624 20.5572 182.966 19.6296L180.857 16.6564C180.257 15.8109 180.676 14.6279 181.675 14.3481L204.526 7.94705Z" fill="white" stroke="#263238"/>
</g>
</svg>
