<svg width="491" height="463" viewBox="0 0 491 463" fill="none" xmlns="http://www.w3.org/2000/svg">
<path d="M76.2804 57.3672C-2.35376 112.045 50.5729 153.86 9.74377 251.779C-31.0854 349.698 65.836 381.196 125.978 412.703C150.859 425.737 216.679 444.292 260.654 444.292C365.356 444.292 412.703 435.855 471.228 349.698C486.903 326.621 493.074 298.169 490.393 270.254C487.646 241.65 485.767 220.165 474.334 194.949C465.659 175.816 463.59 155.646 457.59 135.797C452.456 118.816 442.203 102.147 431.451 88.2925C407.941 57.9995 359.746 36.1432 323.829 25.5001C260.868 6.84517 154.915 2.68896 76.2804 57.3672Z" fill="#FFA406" fill-opacity="0.1"/>
<path d="M129.596 421.934C216.159 487.592 388.77 471.353 443.423 366.651C456.468 341.659 475.038 275.546 475.038 231.374C475.038 126.205 466.594 78.6461 380.364 19.8601C357.268 4.11525 328.792 -2.08369 300.853 0.609543C272.225 3.36891 250.722 20.5255 225.485 32.0092C206.336 40.7228 186.149 42.8009 166.283 48.8282C149.288 53.9846 132.604 64.2837 118.738 75.0833C88.4195 98.6985 66.5446 131.84 55.8926 167.917C30.2648 254.724 56.823 366.734 129.595 421.933L129.596 421.934Z" fill="#FFA406"/>
<g clip-path="url(#clip0_470_543)">
<mask id="mask0_470_543" style="mask-type:alpha" maskUnits="userSpaceOnUse" x="51" y="-18" width="566" height="608">
<path d="M161.631 538.003C275.52 624.455 502.621 603.073 574.526 465.212C591.69 432.305 616.122 345.253 616.122 287.093C616.122 148.616 605.013 85.995 491.561 8.5913C461.174 -12.1399 423.708 -20.3021 386.95 -16.7559C349.285 -13.1226 320.993 9.46744 287.789 24.5882C262.595 36.0613 236.035 38.7976 209.898 46.7337C187.538 53.5232 130.622 41.4415 103.622 41.4415C60.6221 41.4415 52.3285 84.9415 52.3285 133.442C52.3285 175.442 51.1252 270.45 52.3285 305.442C55.4038 394.874 92.8099 485.761 161.629 538.002L161.631 538.003Z" fill="#FFA406"/>
</mask>
<g mask="url(#mask0_470_543)">
<path d="M67.9281 127.316C66.7277 125 94.1135 116.662 94.5477 139.515C94.5477 139.515 145.848 138.253 121.353 109.65C112.873 99.7475 113.746 91.56 113.999 83.9384C114.258 76.3162 108.717 54.1639 89.7292 56.3943C89.7292 56.3943 84.757 54.3704 78.5513 57.5912C64.4376 64.9158 32.8224 135.743 67.9281 127.316Z" fill="#263238" stroke="#263238" stroke-miterlimit="10"/>
<path d="M176.933 197.473C176.331 197.473 175.753 197.13 175.482 196.547L170.094 184.979H152.224C151.34 184.979 150.623 184.263 150.623 183.378C150.623 182.492 151.34 181.776 152.224 181.776H171.114C171.736 181.776 172.302 182.137 172.565 182.702L178.384 195.194C178.757 195.996 178.41 196.949 177.609 197.322C177.39 197.424 177.16 197.473 176.933 197.473Z" fill="white" stroke="#263238" stroke-miterlimit="10"/>
<path d="M165.468 185.794H151.738C150.407 185.794 149.318 184.704 149.318 183.373C149.318 182.041 150.408 180.952 151.738 180.952H165.468C166.8 180.952 167.887 182.042 167.887 183.373C167.887 184.704 166.799 185.794 165.468 185.794Z" fill="white" stroke="#263238" stroke-miterlimit="10"/>
<path d="M150.227 176.949C150.712 177.319 159.347 176.222 162.127 177.975C164.907 179.729 167.576 184.595 166.328 186.333C165.08 188.071 159.174 182.854 157.436 182.942C155.699 183.03 150.712 182.139 150.712 182.139L150.227 176.949Z" fill="white" stroke="#263238" stroke-miterlimit="10"/>
<path d="M153.93 176.414C153.93 176.414 154.762 178.513 154.748 179.776C154.725 181.905 153.93 183.572 153.93 183.572C153.93 183.572 146.898 184.341 136.525 182.844C130.758 182.009 124.764 180.474 120.071 177.716C113.698 173.968 107.778 160.621 103.373 147.882C98.6992 134.376 95.7314 121.546 95.7314 121.546C97.9011 116.294 101.039 113.128 105.872 113.904C108.52 114.328 114.733 116.374 116.136 118.22C118.29 121.052 124.75 146.769 129.154 159.143C131.808 166.603 153.929 176.414 153.929 176.414H153.93Z" fill="white" stroke="#263238" stroke-miterlimit="10"/>
<path d="M136.525 182.844C130.758 182.009 124.763 180.474 120.07 177.716C113.698 173.968 107.778 160.621 103.373 147.882C103.303 138.682 103.303 131.085 103.303 131.085L113.737 135.415C114.057 136.055 117.423 167.641 124.956 174.054C131.354 179.499 135.439 182.164 136.525 182.844Z" fill="#263238" stroke="#263238" stroke-miterlimit="10"/>
<path d="M143.67 198.324C143.067 198.324 142.489 197.982 142.217 197.4L136.83 185.832H118.96C118.077 185.832 117.359 185.115 117.359 184.23C117.359 183.345 118.076 182.629 118.96 182.629H137.85C138.472 182.629 139.039 182.989 139.301 183.553L145.12 196.047C145.492 196.848 145.146 197.801 144.345 198.175C144.125 198.277 143.896 198.324 143.67 198.324Z" fill="#263238" stroke="#263238" stroke-miterlimit="10"/>
<path d="M118.365 182.521H132.944C134.589 182.521 135.925 183.857 135.925 185.502V186.179C135.925 187.825 134.589 189.161 132.944 189.161H118.365C116.72 189.161 115.384 187.825 115.384 186.18V185.502C115.384 183.857 116.72 182.521 118.365 182.521Z" fill="#263238" stroke="#263238" stroke-miterlimit="10"/>
<path d="M246.428 287.574L170.123 287.143L136.697 182.626L188.565 182.049L246.428 287.574Z" fill="white" stroke="#263238" stroke-miterlimit="10"/>
<path d="M162.962 289.659H248.533V282.92H162.962V289.659Z" fill="white" stroke="#263238" stroke-miterlimit="10"/>
<path d="M248.078 355.474L241.957 359.008L201.857 289.513C200.882 287.824 201.462 285.66 203.151 284.685C204.84 283.71 207.003 284.29 207.978 285.979L248.078 355.474L248.078 355.474Z" fill="white" stroke="#263238" stroke-miterlimit="10"/>
<path d="M242.616 359.006H305.323C305.686 359.006 305.979 358.712 305.979 358.35V354.471C305.979 354.109 305.686 353.815 305.323 353.815H242.616C242.254 353.815 241.96 354.109 241.96 354.471V358.35C241.96 358.712 242.254 359.006 242.616 359.006Z" fill="white" stroke="#263238" stroke-miterlimit="10"/>
<path d="M162.963 282.92C164.524 282.92 170.467 277.316 179.791 277.619C189.114 277.921 241.133 277.607 241.133 277.607C241.133 277.607 247.925 276.894 248.559 282.92H162.963Z" fill="white" stroke="#263238" stroke-miterlimit="10"/>
<path d="M33.219 357.934C33.219 357.934 27.4703 363.182 28.5925 366.912C29.7142 370.641 34.9018 373.126 35.6029 377.683C36.3033 382.24 39.1077 384.726 41.6309 384.726H53.6628C53.6628 384.726 55.5207 381.519 51.0342 380.552C46.547 379.586 44.8564 374.231 45.1363 369.259C45.4163 364.287 44.7152 357.658 44.7152 357.658L35.181 355.449L33.2183 357.934L33.219 357.934Z" fill="white" stroke="#263238" stroke-miterlimit="10"/>
<path d="M81.8746 360.163C81.8746 360.163 79.8116 382.664 82.3341 383.907H114.913C114.913 383.907 114.628 379.842 109.439 379.014C104.252 378.185 95.1394 375.147 93.5973 368.38C92.0545 361.613 81.8746 360.163 81.8746 360.163Z" fill="white" stroke="#263238" stroke-miterlimit="10"/>
<path d="M58.8583 200.669C65.5047 185.758 69.5713 181.478 68.7947 176.851C68.2173 173.406 70.5543 112.63 70.5543 112.63C71.3439 112.385 72.9238 112.166 73.7883 111.974C76.5146 111.369 78.7715 109.453 79.7102 106.823C80.841 103.654 81.7406 98.9738 81.7204 93.1105L82.5712 93.2785L96.8868 96.1138C96.8868 96.1138 96.5613 100.621 96.5515 104.866C96.5515 104.901 96.5509 104.937 96.5509 104.971C96.534 108.658 98.9517 111.912 102.493 112.935C104.301 113.458 105.874 113.903 105.874 113.903C105.874 113.903 103.367 116.029 103.665 116.959C104.982 121.071 111.316 131.761 112.135 144.338C113.139 159.76 102.576 166.46 112.215 197.28C122.055 228.756 55.1868 208.907 58.8583 200.669Z" fill="white" stroke="#263238" stroke-miterlimit="10"/>
<path d="M96.8858 96.1137C96.8858 96.1137 96.5604 100.621 96.5506 104.866C88.5397 104.64 84.3058 97.3302 82.5703 93.2784L96.8858 96.1137Z" fill="#263238" stroke="#263238" stroke-miterlimit="10"/>
<path d="M99.5621 100.134C99.5621 100.134 80.6084 100.447 80.5954 88.6361C80.583 76.8268 78.1275 68.9122 90.2285 68.2141C102.329 67.5154 104.685 72.019 105.647 75.96C106.61 79.9004 104.491 99.7475 99.5621 100.134Z" fill="white" stroke="#263238" stroke-miterlimit="10"/>
<path d="M98.8597 67.9243C98.8597 67.9243 93.6701 81.7797 85.7068 83.8284C77.7428 85.877 74.2881 83.7424 74.2881 83.7424C74.2881 83.7424 80.3962 78.8877 81.6636 70.4144C81.6636 70.4144 94.946 61.3303 98.8597 67.9243Z" fill="#263238" stroke="#263238" stroke-miterlimit="10"/>
<path d="M97.5739 69.0495C97.5739 69.0495 101.422 70.4887 103.005 73.2959C104.554 76.0414 105.874 79.6776 105.568 84.1383C105.568 84.1383 109.477 74.7208 105.084 69.3933C100.424 63.7442 97.5739 69.0495 97.5739 69.0495Z" fill="#263238" stroke="#263238" stroke-miterlimit="10"/>
<path d="M112.34 129.161C113.118 131.485 113.88 134.016 114.568 136.713C118.008 150.171 109.443 174.086 109.443 174.086L90.64 179.705L84.6771 178.243L67.7199 174.086C67.7199 174.086 65.5262 173.355 63.585 168.87C63.2165 168.023 62.5532 165.435 61.8605 162.379C61.0937 158.983 60.3002 155.007 59.8503 152.195C59.1928 148.058 57.8759 142.908 56.7276 137.358V137.355C55.8846 133.295 55.134 129.024 54.7975 124.775C54.3425 119.029 58.5321 113.96 64.26 113.324L70.553 112.629C90.53 128.931 105.875 113.905 105.875 113.905" fill="white"/>
<path d="M112.34 129.161C113.118 131.485 113.88 134.016 114.568 136.713C118.008 150.171 109.443 174.086 109.443 174.086L90.64 179.705L84.6771 178.243L67.7199 174.086C67.7199 174.086 65.5262 173.355 63.585 168.87C63.2165 168.023 62.5532 165.435 61.8605 162.379C61.0937 158.983 60.3002 155.007 59.8503 152.195C59.1928 148.058 57.8759 142.908 56.7276 137.358V137.355C55.8846 133.295 55.134 129.024 54.7975 124.775C54.3425 119.029 58.5321 113.96 64.26 113.324L70.553 112.629C90.53 128.931 105.875 113.905 105.875 113.905" stroke="#263238" stroke-miterlimit="10"/>
<path d="M108.246 177.714C108.246 177.714 117.558 206.708 118.156 216.579C118.754 226.451 100.357 356.811 99.616 361.359C98.9188 365.647 93.5965 368.38 93.5965 368.38C93.5965 368.38 91.1481 369.825 87.6544 368.837C82.8072 367.468 81.2748 365.829 81.2748 365.829C81.2748 365.829 74.0269 272.857 78.5128 239.646C82.998 206.435 83.0507 177.714 83.0507 177.714H108.246Z" fill="white" stroke="#263238" stroke-miterlimit="10"/>
<path d="M101.71 179.703L68.7949 176.851C68.7949 176.851 54.5914 195.915 53.2673 208.803C51.9432 221.69 51.1894 266.958 48.3687 279.522C45.548 292.085 35.1826 316.263 35.1826 355.449C35.1826 355.449 36.2606 357.695 39.5871 358.892C40.6501 359.274 42.0758 359.646 43.4604 359.963C46.2036 360.592 49.0184 359.251 50.2702 356.729C57.2779 342.615 79.5998 297.094 80.7442 287.645C81.5546 280.958 88.6021 236.7 103.975 210.731" fill="white"/>
<path d="M101.71 179.703L68.7949 176.851C68.7949 176.851 54.5914 195.915 53.2673 208.803C51.9432 221.69 51.1894 266.958 48.3687 279.522C45.5481 292.085 35.1826 316.263 35.1826 355.449C35.1826 355.449 36.2606 357.695 39.5871 358.892C40.6501 359.274 42.0758 359.646 43.4604 359.963C46.2036 360.592 49.0184 359.251 50.2702 356.729C57.2779 342.615 79.5998 297.094 80.7442 287.645C81.5546 280.958 88.6021 236.7 103.975 210.731" stroke="#263238" stroke-miterlimit="10"/>
<path d="M109.734 173.239C109.734 173.239 105.996 176.196 98.5691 176.347C89.6989 176.525 67.7202 174.084 67.7202 174.084C67.7202 174.084 66.7437 176.814 66.7834 179.697C66.7834 179.697 93.6276 186.47 109.182 180.686C109.182 180.686 111.188 176.911 109.734 173.239V173.239Z" fill="white" stroke="#263238" stroke-miterlimit="10"/>
<path d="M73.9167 158.435L55.7637 132.277C56.056 133.994 56.3834 135.693 56.7284 137.354V137.357C57.8767 142.908 59.1936 148.057 59.8511 152.194C60.3003 155.006 61.0945 158.983 61.8613 162.379C62.554 165.435 63.2173 168.022 63.5858 168.869C65.5244 173.348 67.7136 174.083 67.7201 174.086C67.7136 174.105 66.7443 176.823 66.784 179.696C66.784 179.696 84.9175 184.27 100.012 182.689C102.841 180.962 104.66 179.704 104.66 179.704L73.9167 158.435Z" fill="#263238" stroke="#263238" stroke-miterlimit="10"/>
<path d="M88.5225 144.241C88.5225 144.241 101.953 165.571 105.844 169.405C109.734 173.238 89.9605 166.358 89.9605 166.358L88.5225 144.241Z" fill="#263238" stroke="#263238" stroke-miterlimit="10"/>
<path d="M115.552 176.378C116.102 176.799 125.918 175.552 129.079 177.545C132.238 179.539 135.272 185.07 133.854 187.046C132.435 189.021 125.722 183.09 123.746 183.191C121.772 183.292 116.102 181.537 116.102 181.537L115.552 176.378Z" fill="white" stroke="#263238" stroke-miterlimit="10"/>
<path d="M55.7607 132.274C55.7607 132.274 69.922 169.992 83.0515 177.714C96.1809 185.437 119.513 182.919 119.513 182.919C119.513 182.919 120.19 181.233 120.375 179.032C120.467 177.943 119.513 175.761 119.513 175.761C119.513 175.761 95.7877 161.832 94.7384 159.143C89.9602 146.906 83.0378 131.246 80.1533 129.162" fill="white"/>
<path d="M55.7607 132.274C55.7607 132.274 69.922 169.992 83.0515 177.714C96.1809 185.437 119.513 182.919 119.513 182.919C119.513 182.919 120.19 181.233 120.375 179.032C120.467 177.943 119.513 175.761 119.513 175.761C119.513 175.761 95.7877 161.832 94.7384 159.143C89.9602 146.906 83.0378 131.246 80.1533 129.162" stroke="#263238" stroke-miterlimit="10"/>
<path d="M269.339 210.849C269.339 210.849 271.421 210.85 272.764 209.921C273.386 209.491 274.295 208.641 275.39 207.636C276.16 206.928 277.32 207.753 278.361 207.83C282.432 208.131 290.354 203.678 290.656 205.641C290.959 207.603 286.318 214.51 280.168 214.699C277.904 214.768 271.641 217.265 271.641 217.265L269.339 210.849Z" fill="white" stroke="#263238" stroke-miterlimit="10"/>
<path d="M218.536 166.23C218.752 166.814 237.783 208.911 243.78 209.793C251.394 210.91 271.264 208.585 271.264 208.585L273.745 218.584C273.745 218.584 255.522 228.31 239.321 226.373C223.12 224.436 213.983 203.122 213.983 203.122L218.536 166.23Z" fill="white" stroke="#263238" stroke-miterlimit="10"/>
<path d="M262.169 335.705C262.169 335.705 261.035 353.766 263.885 354.044C264.264 354.081 278.345 354.202 278.345 354.202L296.509 354.359C296.509 354.359 296.242 349.048 290.995 347.906C285.749 346.766 276.986 342.269 273.862 333.93C270.576 325.157 262.168 335.705 262.168 335.705H262.169Z" fill="white" stroke="#263238" stroke-miterlimit="10"/>
<path d="M190.844 244.263C190.844 244.263 184.574 265.816 192.831 273.386C202.459 282.211 255.44 276.644 254.695 281.736C253.417 290.46 261.184 339.612 261.184 339.612C261.184 339.612 271.738 341.814 278.446 339.777C278.446 339.777 283.018 267.808 274.073 258.711C261.02 245.435 217.055 239.701 217.055 239.701L190.844 244.263Z" fill="white" stroke="#263238" stroke-miterlimit="10"/>
<path d="M243.095 335.718C243.095 335.718 241.961 353.781 244.811 354.058C245.19 354.094 259.272 354.216 259.272 354.216L277.436 354.372C277.436 354.372 277.168 349.063 271.922 347.921C266.675 346.781 257.912 342.284 254.789 333.945C251.504 325.172 243.095 335.719 243.095 335.719V335.718Z" fill="white" stroke="#263238" stroke-miterlimit="10"/>
<path d="M172.211 244.263C172.211 244.263 165.94 265.816 174.198 273.386C183.826 282.211 236.747 276.634 236.061 281.736C234.074 296.535 241.738 340.795 241.738 340.795C241.738 340.795 253.104 341.813 259.813 339.777C259.813 339.777 266.675 272.713 255.44 260.013C248.173 251.799 203.39 241.005 203.39 241.005L172.21 244.263L172.211 244.263Z" fill="white" stroke="#263238" stroke-miterlimit="10"/>
<path d="M205.674 139.463C205.674 139.463 201.455 148.687 203.351 156.538L197.914 177.594L181.666 156.41C181.666 156.41 187.988 146.825 189.418 134.694L205.674 139.463Z" fill="white" stroke="#263238" stroke-miterlimit="10"/>
<path d="M186.82 145.578C190.575 153.724 197.357 155.772 203.109 155.312C201.884 147.759 205.675 139.463 205.675 139.463L204.511 139.122C202.696 139.975 201.031 141.386 198.69 142.111C196.171 142.892 191.393 141.911 188.204 141.079C187.791 142.667 187.318 144.173 186.82 145.578Z" fill="#263238" stroke="#263238" stroke-miterlimit="10"/>
<path d="M182.621 254.419C177.105 254.782 172.354 254.526 169.458 253.548C167.285 252.82 165.657 235.254 164.844 214.47C163.942 191.462 164.04 166.905 165.504 164.583C168.329 160.116 181.521 156.104 181.898 156.055C184.201 157.781 189.784 161.317 196.696 161.199C201.373 161.121 202.871 158.058 203.349 156.278C205.29 156.494 210.906 158.975 212.49 159.545C220.41 162.395 220.223 175.735 220.223 175.735C220.223 175.735 221.489 226.574 223.525 238.349C225.051 247.178 200.293 253.26 182.621 254.419Z" fill="white" stroke="#263238" stroke-miterlimit="10"/>
<path d="M208.704 144.671C208.704 144.671 190.58 150.538 187.501 138.607C184.422 126.676 177.643 120.029 191.107 115.234C202.178 111.29 207.098 115.405 209.012 119.113C210.925 122.822 215.348 142.175 208.704 144.671Z" fill="white" stroke="#263238" stroke-miterlimit="10"/>
<path d="M184.402 121.035C184.43 119.723 185.666 118.702 185.666 118.702C194.864 110.974 203.631 114.292 203.631 114.292C195.186 106.738 180.366 112.851 179.062 122.098C176.934 137.196 187.186 137.421 187.186 137.421C187.186 137.421 195.769 130.401 188.956 126.396C186.698 125.068 185.437 123.684 184.82 122.35C184.613 121.905 184.478 121.465 184.402 121.035Z" fill="white" stroke="#263238" stroke-miterlimit="10"/>
<path d="M211.992 131.594C211.992 131.594 219.091 146.088 213.535 149.917C207.98 153.746 191.512 156.386 187.188 137.422C187.188 137.422 196.876 140.618 200.872 139.38C204.869 138.142 206.89 134.893 211.065 135.862C211.065 135.862 212.404 135.39 211.992 131.594Z" fill="white" stroke="#263238" stroke-miterlimit="10"/>
<path d="M210.392 138.68C210.392 138.68 209.646 141.09 207.516 141.577C205.386 142.065 203.96 140.39 203.96 140.39C203.96 140.39 207.361 138.696 210.392 138.68H210.392Z" fill="white" stroke="#263238" stroke-miterlimit="10"/>
<path d="M203.329 242.024L206.994 250.849C206.994 250.849 188.483 249.017 185.13 251.731C183.571 252.995 182.301 255.033 182.621 256.372C177.106 256.735 172.354 256.479 169.458 255.501C167.286 254.772 165.658 235.254 164.845 214.469L167.491 210.457L173.896 204.319C176.558 201.767 182.264 184.214 181.437 189.161C180.445 195.102 180.74 207.33 181.667 213.566C183.13 223.397 196.31 235.303 203.33 242.023L203.329 242.024Z" fill="#263238" stroke="#263238" stroke-miterlimit="10"/>
<path d="M202.718 241.708C202.718 241.708 204.948 242.792 207.764 242.884C208.358 242.903 209.815 242.834 210.634 242.621C211.944 242.279 211.818 243.032 212.705 243.123C214.259 243.281 215.292 243.572 216.483 244.223C217.67 244.872 219.738 246.865 220.787 248.075C221.455 248.845 222.233 252.049 221.529 252.495C220.244 253.307 213.255 250.609 211.363 251.096C209.94 251.462 207.431 251.177 205.799 250.365C204.166 249.554 201.124 248.561 201.124 248.561L202.719 241.709L202.718 241.708Z" fill="white" stroke="#263238" stroke-miterlimit="10"/>
<path d="M211.937 244.305C211.937 244.305 213.284 243.417 213.813 242.87C214.341 242.323 213.478 241.465 213.478 241.465C211.883 242.196 209.841 243.052 207.765 242.884" fill="white"/>
<path d="M211.937 244.305C211.937 244.305 213.284 243.417 213.813 242.87C214.341 242.323 213.478 241.465 213.478 241.465C211.883 242.196 209.841 243.052 207.765 242.884" stroke="#263238" stroke-miterlimit="10"/>
<path d="M167.21 162.702C167.21 162.702 157.148 169.014 157.334 196.915C157.521 224.815 155.844 229.906 160.502 233.572C165.16 237.238 191.651 248.676 201.341 249.355C201.341 249.355 204.819 245.486 203.328 241.276C203.328 241.276 173.421 219.859 173.048 218.637C172.676 217.415 180.733 195.081 181.666 187.75C181.866 186.169 182.02 183.372 181.528 181.842" fill="white"/>
<path d="M167.21 162.702C167.21 162.702 157.148 169.014 157.334 196.915C157.521 224.815 155.844 229.906 160.502 233.572C165.16 237.238 191.651 248.676 201.341 249.355C201.341 249.355 204.819 245.486 203.328 241.276C203.328 241.276 173.421 219.859 173.048 218.637C172.676 217.415 180.733 195.081 181.666 187.75C181.866 186.169 182.02 183.372 181.528 181.842" stroke="#263238" stroke-miterlimit="10"/>
<path d="M273.511 209.333C273.511 209.333 278.651 204.346 279.338 204.961C280.055 205.603 278.163 208.72 278.163 208.72" fill="white"/>
<path d="M273.511 209.333C273.511 209.333 278.651 204.346 279.338 204.961C280.055 205.603 278.163 208.72 278.163 208.72" stroke="#263238" stroke-miterlimit="10"/>
<path d="M157.667 341.457H162.963V253.086H157.667V341.457Z" fill="white" stroke="#263238" stroke-miterlimit="10"/>
<path d="M241.133 366.287H246.429V255.558H241.133V366.287Z" fill="white" stroke="#263238" stroke-miterlimit="10"/>
<path d="M253.18 374.505C253.18 369.312 248.972 365.103 243.781 365.103C238.589 365.103 234.382 369.312 234.382 374.505C234.382 379.699 238.589 383.907 243.781 383.907C248.972 383.907 253.18 379.698 253.18 374.505Z" fill="white" stroke="#263238" stroke-miterlimit="10"/>
<path d="M240.554 374.505C240.554 372.722 241.998 371.277 243.781 371.277C245.563 371.277 247.008 372.722 247.008 374.505C247.008 376.288 245.564 377.734 243.781 377.734C241.998 377.734 240.554 376.288 240.554 374.505Z" fill="white" stroke="#263238" stroke-miterlimit="10"/>
<path d="M154.344 258.692H254.166C254.166 252.562 249.2 247.593 243.072 247.593H160.953C157.302 247.593 154.344 250.554 154.344 254.205V258.692Z" fill="white" stroke="#263238" stroke-miterlimit="10"/>
<path d="M169.799 299.744L167.486 299.264L150.825 379.547L153.138 380.028L169.799 299.744Z" fill="#263238" stroke="#263238" stroke-miterlimit="10"/>
<path d="M200.202 349.134L200.683 346.82L120.426 330.153L119.946 332.467L200.202 349.134Z" fill="#263238" stroke="#263238" stroke-miterlimit="10"/>
<path d="M199.601 327.912L198.86 325.668L121.025 351.376L121.766 353.62L199.601 327.912Z" fill="#263238" stroke="#263238" stroke-miterlimit="10"/>
<path d="M172.044 378.945L174.287 378.204L148.588 300.342L146.345 301.083L172.044 378.945Z" fill="#263238" stroke="#263238" stroke-miterlimit="10"/>
<path d="M188.473 309.834L186.71 308.261L132.153 369.455L133.916 371.028L188.473 309.834Z" fill="#263238" stroke="#263238" stroke-miterlimit="10"/>
<path d="M190.115 367.813L191.688 366.05L130.514 311.474L128.941 313.237L190.115 367.813Z" fill="#263238" stroke="#263238" stroke-miterlimit="10"/>
<path d="M154.681 339.645C154.681 336.533 157.203 334.01 160.314 334.01C163.424 334.01 165.948 336.533 165.948 339.645C165.948 342.757 163.426 345.28 160.314 345.28C157.201 345.28 154.681 342.758 154.681 339.645Z" fill="white" stroke="#263238" stroke-miterlimit="10"/>
<path d="M116.036 339.645C116.036 315.222 135.9 295.352 160.315 295.352C184.729 295.352 204.594 315.222 204.594 339.645C204.594 364.068 184.73 383.937 160.315 383.937C135.899 383.937 116.036 364.067 116.036 339.645ZM120.769 339.645C120.769 361.457 138.509 379.204 160.314 379.204C182.119 379.204 199.86 361.457 199.86 339.645C199.86 317.833 182.12 300.085 160.314 300.085C138.508 300.085 120.769 317.832 120.769 339.645Z" fill="white" stroke="#263238" stroke-miterlimit="10"/>
</g>
</g>
<g clip-path="url(#clip1_470_543)">
<path d="M418.418 384.714H399.693C399.833 383.731 400.31 380.737 401.187 377.98C401.49 377.019 401.845 376.087 402.248 375.278C404.068 371.636 415.635 373.952 415.635 373.952C415.635 373.952 416.71 374.874 417.549 378.397C417.92 379.947 418.248 382.008 418.418 384.714Z" fill="white" stroke="#263238" stroke-miterlimit="10"/>
<path d="M384.045 98.1638C384.045 98.1638 369.124 100.789 365.751 109.612C362.379 118.436 343.321 260.96 343.321 260.96C343.321 260.96 352.758 268.451 373.014 265.762C393.271 263.073 384.045 98.1638 384.045 98.1638Z" fill="white" stroke="#263238" stroke-miterlimit="10"/>
<path d="M361.835 378.793C361.784 381.345 361.463 383.76 360.539 384.714H323.503C323.973 383.372 325.306 381.352 329.109 380.733C333.43 380.033 340.164 377.949 344.096 373.784C345.497 372.305 346.541 370.56 346.998 368.52C348.741 360.748 361.405 370.901 361.405 370.901C361.405 370.901 361.917 374.994 361.835 378.794V378.793Z" fill="white" stroke="#263238" stroke-miterlimit="10"/>
<path d="M345.886 375.014C350.026 376.336 357.935 380.374 362.961 378.474C366.208 377.248 383.329 323.605 384.506 300.594C384.593 298.92 384.922 296.586 385.436 293.739C386.51 287.801 388.391 279.64 390.557 270.635C396.366 246.506 404.224 216.321 404.054 206.673C403.79 191.7 360.543 204.569 360.543 204.569C360.543 204.569 357.498 216.853 356.891 234.637C355.688 269.937 352.382 329.565 343.391 370.975C343.01 372.732 344.169 374.466 345.885 375.013L345.886 375.014Z" fill="white" stroke="#263238" stroke-miterlimit="10"/>
<path d="M380.001 207.76L400.024 377.729C400.024 377.729 410.304 380.213 418.299 378.226C418.299 378.226 425.152 287.828 424.581 265.974C424.01 244.119 429.499 207.495 423.328 203.456C417.158 199.418 380.001 207.76 380.001 207.76Z" fill="white" stroke="#263238" stroke-miterlimit="10"/>
<path d="M426.287 105.95C426.287 105.95 401.689 90.0143 384.045 98.1638C381.233 99.4623 378.025 103.086 375.73 105.621C369.352 112.662 356.891 224.507 356.891 224.507C356.891 224.507 392.267 236.51 426.287 220.433V105.95Z" fill="white" stroke="#263238" stroke-miterlimit="10"/>
<path d="M382.645 97.7598C382.645 97.7598 357.742 107.985 354.369 115.841C350.996 123.697 340.033 171.944 340.033 177.601C340.033 183.259 359.121 178.866 362.193 169.742C364.746 162.165 373.351 138.888 377.89 124.165L382.645 97.7598Z" fill="white" stroke="#263238" stroke-miterlimit="10"/>
<path d="M387.817 105.551C393.253 106.619 401.239 105.48 407.086 101.62C404.446 95.3029 403.364 90.3153 402.979 87.0871C402.957 86.9156 402.94 86.7489 402.923 86.5883C402.748 84.9149 402.774 83.781 402.855 83.2598H388.8C388.8 83.2598 384.958 85.0199 384.958 86.2365C384.958 86.8865 384.953 87.5087 384.941 88.103C384.913 89.7229 384.849 91.1367 384.764 92.3513C384.497 96.3013 384.045 98.1631 384.045 98.1631C384.045 98.1631 382.326 104.472 387.817 105.551Z" fill="white" stroke="#263238" stroke-miterlimit="10"/>
<path d="M384.764 93.9643C395.412 96.0247 401.594 88.5822 402.979 87.087C403.176 86.8735 403.276 86.7461 403.276 86.7461C403.164 86.6892 403.046 86.6397 402.923 86.5882C398.959 84.9805 389.964 86.2581 384.94 88.103C384.912 89.7228 384.848 92.7497 384.764 93.9636L384.764 93.9643Z" fill="#263238" stroke="#263238" stroke-miterlimit="10"/>
<path d="M406.456 80.9459C404.554 91.2059 391.341 90.869 385.63 90.2238C384.023 90.0442 383.012 89.8395 383.012 89.8395C381.201 89.3549 380.189 86.4947 379.719 82.7494C378.787 75.3368 379.965 64.4553 381.214 61.6731C383.095 57.4852 386.639 52.9557 399.945 56.2239C413.254 59.4948 408.899 67.8007 406.456 80.9459Z" fill="white" stroke="#263238" stroke-miterlimit="10"/>
<path d="M380.719 55.9493C382.538 53.4267 386.394 50.3443 389.896 48.4459C397.421 44.3678 407.05 48.5739 407.09 48.5922C417.96 53.3806 420.798 61.7117 415.035 74.6895C408.941 88.4135 403.14 86.8695 403.14 86.8695C403.14 86.8695 404.372 86.1009 404.261 81.8243C404.255 81.5809 404.245 81.3783 404.234 81.2034C404.177 80.3271 404.486 79.448 405.139 78.8631C406.49 77.656 407.148 74.0049 406.018 72.9883C404.654 71.7622 402.737 73.2512 402.125 74.3973C401.591 75.2066 400.632 75.4899 399.739 74.9246C396.357 72.7822 398.555 68.4974 395.322 65.8752C392.089 63.2522 385.53 65.4543 380.68 63.3647C374.332 60.9953 379.348 57.8511 380.718 55.9507L380.719 55.9493Z" fill="#263238" stroke="#263238" stroke-miterlimit="10"/>
<path d="M423.328 203.456C420.158 201.381 400.611 203.709 382.355 206.463C382.354 206.476 382.349 206.487 382.348 206.5C382.148 208.48 381.731 226.745 381.194 232.575C380.809 236.738 381.083 276.612 381.235 278.569C383.376 279.12 385.496 279.574 387.604 279.923C389.468 280.241 391.323 280.478 393.182 280.636C403.087 281.5 413.036 280.236 424.474 277.124C424.608 272.538 424.654 268.716 424.582 265.974C424.011 244.119 429.5 207.496 423.329 203.456H423.328Z" fill="#263238" stroke="#263238" stroke-miterlimit="10"/>
<path d="M379.205 271.432C381.346 271.983 383.466 272.437 385.574 272.786C387.437 273.105 389.293 273.341 391.151 273.499C401.678 274.417 412.253 272.933 424.612 269.382C427.395 268.582 430.272 267.675 433.256 266.669C433.574 266.562 432.443 233.818 431.14 200.042C431.008 196.556 430.87 193.055 430.734 189.58C430.675 188.107 430.619 186.642 430.56 185.181C429.377 155.309 428.204 128.332 427.957 126.878C427.393 123.592 426.864 120.79 426.287 118.362C424.603 111.285 422.512 107.404 417.953 104.066C417.509 103.728 413.863 101.887 410.648 100.284C407.983 98.9567 405.616 97.7998 405.616 97.7998H405.613C404.553 98.321 403.28 100.754 401.947 104.171C399.499 110.468 396.857 120.11 395.019 127.312C395.013 127.331 395.011 127.342 395.011 127.349V127.351C393.828 132.001 392.978 135.622 392.736 136.662C392.326 138.417 391.783 141.813 391.145 146.418C390.279 152.684 389.245 161.189 388.151 170.841C388.039 171.832 387.926 172.837 387.814 173.851C387.684 175.009 387.552 176.18 387.423 177.364C387.381 177.743 387.339 178.124 387.299 178.504C386.878 182.326 386.453 186.271 386.032 190.282C385.681 193.597 380.664 195.993 380.318 199.364C380.118 201.344 379.7 219.61 379.164 225.439C378.779 229.602 379.053 269.475 379.205 271.434V271.432Z" fill="white" stroke="#263238" stroke-miterlimit="10"/>
<path d="M416.992 136.181C417.007 136.249 416.363 169.128 393.734 172.789C371.106 176.45 386.14 177.418 386.14 177.418C386.14 177.418 428.716 175.605 429.418 174.479C430.122 173.352 416.992 136.181 416.992 136.181Z" fill="#263238" stroke="#263238" stroke-miterlimit="10"/>
<path d="M396.391 185.727C396.391 185.727 396.815 186.028 397.63 186.555C397.645 186.561 397.658 186.572 397.672 186.58C401.124 188.788 411.37 194.807 426.287 198.842C427.853 199.268 429.472 199.67 431.14 200.042C431.008 196.556 430.56 185.181 430.56 185.181C430.56 185.181 427.645 184.048 426.287 183.537C420.16 181.205 415.617 179.625 415.617 179.625L397.478 185.382L396.391 185.728V185.727Z" fill="#263238" stroke="#263238" stroke-miterlimit="10"/>
<path d="M413.875 125.277C416.764 135.198 419.712 145.751 421.431 153.103C422.55 157.88 423.149 161.304 422.876 162.327C421.685 166.785 409.336 169.078 401.513 170.091C398.249 170.514 395.772 170.713 395.219 170.756C395.18 170.756 395.143 170.759 395.104 170.765L391.59 183.838C391.59 183.838 393.92 185.806 397.63 186.555C397.645 186.555 397.656 185.173 397.669 185.178C404.511 186.555 416.014 188.487 426.287 188.383C427.802 188.366 429.292 188.307 430.735 188.194C432.705 188.039 434.591 187.788 436.342 187.417C440.097 186.622 443.243 185.279 445.301 183.178C460.584 167.581 436.961 112.991 431.994 107.544C426.195 101.186 415.611 98.9547 409.768 98.1888" fill="white"/>
<path d="M413.875 125.277C416.764 135.198 419.712 145.751 421.431 153.103C422.55 157.88 423.149 161.304 422.876 162.327C421.685 166.785 409.336 169.078 401.513 170.091C398.249 170.514 395.772 170.713 395.219 170.756C395.18 170.756 395.143 170.759 395.104 170.765L391.59 183.838C391.59 183.838 393.92 185.806 397.63 186.555C397.645 186.555 397.656 185.173 397.669 185.178C404.511 186.555 416.014 188.487 426.287 188.383C427.802 188.366 429.292 188.307 430.735 188.194C432.705 188.039 434.591 187.788 436.342 187.417C440.097 186.622 443.243 185.279 445.301 183.178C460.584 167.581 436.961 112.991 431.994 107.544C426.195 101.186 415.611 98.9547 409.768 98.1888" stroke="#263238" stroke-miterlimit="10"/>
<path d="M348.963 212.055L401.452 209.839L390.804 144.302L338.314 146.518L348.963 212.055Z" fill="white" stroke="#263238" stroke-miterlimit="10"/>
<path d="M394.452 170.788C394.452 170.788 381.963 169.915 381.335 172.832C379.876 179.631 392.074 185.214 396.026 184.832C399.978 184.451 397.328 170.333 394.452 170.788Z" fill="white" stroke="#263238" stroke-miterlimit="10"/>
<path d="M341.924 159.677C341.924 159.677 354.222 155.824 355.542 158.595C358.619 165.053 347.733 173.552 343.686 174.113C339.639 174.674 338.938 159.908 341.924 159.677Z" fill="white" stroke="#263238" stroke-miterlimit="10"/>
<path d="M404.553 94.5099C404.553 94.5099 409.403 95.3523 411.558 98.4497C411.558 98.4497 394.94 127.609 395.011 127.347C395.083 127.086 400.443 98.0891 404.553 94.5099Z" fill="white" stroke="#263238" stroke-miterlimit="10"/>
<path d="M384.541 94.9044C383.126 95.4392 380.412 98.2248 379.8 99.7653L377.89 124.165C377.89 124.165 381.969 106.258 384.044 98.1645C384.571 96.1074 384.475 95.4819 384.541 94.9044Z" fill="white" stroke="#263238" stroke-miterlimit="10"/>
<path d="M381.967 144.676C381.967 144.676 381.289 141.701 377.38 142.047C373.471 142.392 351.513 143.475 351.513 143.475C351.513 143.475 347.279 143.406 347.671 146.123L381.967 144.676Z" fill="white" stroke="#263238" stroke-miterlimit="10"/>
</g>
<path d="M72.8603 59.7972C70.5607 61.4675 68.3823 63.1267 66.3186 64.7766L66.6308 65.1672C64.4136 66.9399 62.3299 68.7014 60.3714 70.4543L60.038 70.0817C57.9156 71.9812 55.939 73.8712 54.0978 75.7549L54.4553 76.1044C52.4784 78.1269 50.6591 80.1413 48.9843 82.1514L48.6001 81.8313C46.7764 84.0202 45.1222 86.2051 43.6213 88.391L44.0335 88.674C42.441 90.9931 41.0225 93.3128 39.7577 95.6391L39.3185 95.4002C37.9803 97.8616 36.8128 100.331 35.7928 102.816L36.2553 103.005C35.2078 105.557 34.3165 108.125 33.5561 110.719L33.0763 110.578C32.3035 113.213 31.6653 115.873 31.1352 118.565L31.6258 118.662C31.102 121.322 30.6839 124.016 30.3459 126.752L29.8497 126.691C29.5178 129.377 29.2632 132.102 29.0614 134.873L29.5601 134.909C29.3644 137.597 29.2185 140.33 29.1002 143.114L28.6006 143.093C28.4863 145.783 28.3978 148.52 28.3151 151.31L28.8148 151.324C28.7847 152.342 28.7552 153.367 28.7256 154.4C28.6769 156.095 28.6276 157.811 28.5735 159.547L28.0738 159.531C27.9897 162.226 27.894 164.971 27.7703 167.772L28.2698 167.794C28.1514 170.477 28.0074 173.212 27.8236 176.003L27.3247 175.97C27.1483 178.649 26.9352 181.379 26.673 184.164L27.1708 184.21C26.9185 186.89 26.6207 189.621 26.2662 192.406L25.7702 192.343C25.431 195.008 25.0399 197.723 24.587 200.491L25.0805 200.571C24.6458 203.228 24.1544 205.933 23.5975 208.69L23.1074 208.591C22.5759 211.222 21.9847 213.899 21.3262 216.626L21.8122 216.744C21.1812 219.357 20.4886 222.015 19.7278 224.72L19.2465 224.584C18.5208 227.164 17.733 229.787 16.8772 232.454L17.3533 232.607C16.5331 235.163 15.6506 237.76 14.7009 240.399L14.2304 240.23C13.3231 242.752 12.3542 245.312 11.3193 247.912L11.7839 248.097C11.2738 249.379 10.7478 250.67 10.2053 251.971C9.66909 253.257 9.15681 254.531 8.66801 255.794L8.20172 255.613C7.20014 258.201 6.2966 260.741 5.48768 263.235L5.96329 263.389C5.1097 266.021 4.36209 268.6 3.71634 271.129L3.23189 271.005C2.54397 273.699 1.97096 276.336 1.50804 278.918L2.0002 279.007C1.51178 281.732 1.14666 284.394 0.898972 286.997L0.40122 286.95C0.138074 289.716 0.0066727 292.415 0.000241677 295.051L0.500241 295.052C0.493527 297.803 0.623853 300.485 0.883287 303.099L0.38573 303.148C0.657708 305.888 1.07073 308.556 1.61592 311.154L2.10527 311.051C2.66358 313.711 3.36143 316.298 4.18917 318.816L3.71419 318.972C4.56464 321.558 5.55128 324.071 6.66378 326.515L7.11885 326.308C8.23383 328.758 9.4763 331.138 10.8359 333.453L10.4048 333.706C11.7704 336.031 13.2531 338.29 14.8424 340.487L15.2475 340.193C16.8151 342.36 18.4874 344.467 20.2543 346.518L19.8755 346.844C21.6283 348.878 23.4731 350.856 25.4001 352.783L25.7536 352.429C27.6408 354.316 29.6077 356.153 31.6451 357.944L31.315 358.32C33.3288 360.09 35.4106 361.816 37.5514 363.499L37.8605 363.106C39.964 364.76 42.125 366.374 44.3352 367.951L44.0448 368.358C46.2327 369.919 48.4679 371.444 50.7424 372.936L51.0166 372.518C53.2622 373.99 55.5465 375.431 57.8615 376.842L57.6012 377.269C59.9018 378.671 62.2322 380.045 64.5845 381.392L64.8331 380.958C67.1712 382.298 69.5315 383.611 71.9061 384.902L71.6673 385.342C74.0429 386.633 76.4326 387.902 78.8285 389.151L79.0596 388.708C81.46 389.959 83.867 391.19 86.2729 392.405L86.0476 392.851C88.4711 394.074 90.8931 395.281 93.3058 396.473L93.5272 396.024C95.9651 397.229 98.3935 398.419 100.805 399.597L100.585 400.047C101.506 400.497 102.424 400.945 103.339 401.392C104.857 402.134 106.367 402.871 107.866 403.605L108.086 403.156C110.544 404.36 112.974 405.555 115.368 406.745L115.145 407.192C117.605 408.415 120.026 409.632 122.397 410.848L122.625 410.403C123.833 411.022 125.029 411.641 126.21 412.26C127.276 412.818 128.418 413.387 129.632 413.965L129.417 414.416C131.566 415.439 133.935 416.488 136.498 417.552L136.689 417.09C138.941 418.025 141.344 418.972 143.878 419.924L143.702 420.392C146.022 421.264 148.452 422.14 150.976 423.014L151.14 422.541C153.5 423.359 155.944 424.175 158.46 424.985L158.307 425.461C160.707 426.233 163.172 427.001 165.691 427.759L165.835 427.28C168.262 428.01 170.739 428.732 173.259 429.441L173.123 429.923C175.574 430.613 178.065 431.291 180.586 431.955L180.713 431.472C183.182 432.122 185.68 432.758 188.201 433.377L188.081 433.862C190.573 434.474 193.086 435.069 195.612 435.645L195.723 435.157C198.228 435.728 200.746 436.279 203.27 436.808L203.167 437.297C205.692 437.826 208.223 438.333 210.752 438.815L210.846 438.324C213.384 438.807 215.921 439.266 218.449 439.696L218.366 440.189C220.924 440.625 223.473 441.031 226.005 441.406L226.079 440.912C228.648 441.293 231.201 441.64 233.727 441.953L233.666 442.449C236.261 442.77 238.829 443.053 241.361 443.294L241.409 442.797C244.015 443.046 246.583 443.251 249.103 443.409L249.071 443.908C251.699 444.073 254.276 444.187 256.791 444.246L256.803 443.746C258.104 443.776 259.388 443.792 260.654 443.792C262.037 443.792 263.409 443.79 264.772 443.787L264.773 444.287C267.53 444.281 270.246 444.268 272.923 444.247L272.919 443.747C275.675 443.725 278.388 443.695 281.062 443.655L281.07 444.155C283.827 444.114 286.541 444.062 289.215 443.999L289.203 443.499C291.96 443.433 294.673 443.354 297.344 443.261L297.362 443.761C300.124 443.664 302.842 443.552 305.518 443.423L305.493 442.923C308.251 442.79 310.963 442.638 313.631 442.465L313.663 442.964C316.419 442.785 319.13 442.585 321.796 442.36L321.754 441.862C324.505 441.629 327.209 441.371 329.868 441.085L329.922 441.582C332.67 441.286 335.371 440.959 338.028 440.599L337.961 440.104C340.693 439.734 343.377 439.329 346.017 438.885L346.1 439.379C348.819 438.922 351.492 438.425 354.121 437.884L354.02 437.395C356.709 436.842 359.352 436.243 361.952 435.595L362.073 436.08C364.736 435.417 367.356 434.701 369.935 433.931L369.792 433.452C372.408 432.67 374.983 431.831 377.52 430.931L377.687 431.402C380.262 430.489 382.798 429.513 385.3 428.47L385.108 428.009C387.611 426.965 390.079 425.855 392.518 424.673L392.736 425.122C395.176 423.94 397.586 422.685 399.971 421.356L399.727 420.919C402.079 419.607 404.405 418.222 406.711 416.759L406.978 417.181C409.25 415.739 411.501 414.222 413.735 412.626L413.444 412.219C415.621 410.664 417.781 409.034 419.93 407.324L420.241 407.715C422.337 406.047 424.422 404.304 426.498 402.482L426.168 402.106C428.174 400.346 430.172 398.513 432.165 396.603L432.511 396.964C434.441 395.115 436.366 393.194 438.289 391.199L437.929 390.852C439.778 388.933 441.626 386.946 443.474 384.887L443.846 385.221C445.629 383.235 447.412 381.183 449.197 379.063L448.815 378.741C450.53 376.705 452.247 374.606 453.969 372.441L454.36 372.753C456.02 370.666 457.683 368.52 459.352 366.311L458.953 366.01C460.558 363.886 462.168 361.705 463.785 359.465L464.19 359.757C465.751 357.594 467.318 355.377 468.893 353.103L468.482 352.818C469.258 351.698 470.035 350.564 470.815 349.417C471.593 348.271 472.348 347.112 473.079 345.94L473.503 346.205C474.978 343.842 476.357 341.429 477.643 338.97L477.199 338.739C478.483 336.285 479.671 333.785 480.766 331.247L481.225 331.445C482.326 328.893 483.333 326.301 484.246 323.676L483.774 323.512C484.683 320.9 485.498 318.254 486.221 315.581L486.704 315.712C487.429 313.032 488.061 310.324 488.602 307.595L488.111 307.498C488.648 304.786 489.094 302.053 489.449 299.305L489.945 299.369C490.301 296.616 490.567 293.849 490.742 291.072L490.243 291.04C490.418 288.281 490.503 285.513 490.5 282.741L491 282.74C490.997 279.965 490.906 277.186 490.727 274.409L490.228 274.441C490.139 273.061 490.028 271.68 489.895 270.302L489.741 268.687C489.668 267.935 489.597 267.187 489.525 266.444L490.023 266.396C489.771 263.773 489.522 261.208 489.268 258.692L488.771 258.742C488.507 256.128 488.238 253.567 487.953 251.051L488.45 250.994C488.156 248.391 487.846 245.834 487.508 243.312L487.013 243.378C486.667 240.797 486.294 238.254 485.881 235.736L486.375 235.655C485.955 233.095 485.495 230.561 484.981 228.04L484.491 228.14C483.979 225.622 483.413 223.117 482.783 220.614L483.267 220.492C482.642 218.01 481.954 215.528 481.19 213.036L480.712 213.182C479.97 210.759 479.156 208.325 478.26 205.869L478.73 205.698C477.864 203.322 476.921 200.925 475.891 198.498L475.431 198.693C474.934 197.522 474.417 196.343 473.879 195.156C473.344 193.976 472.834 192.793 472.347 191.606L472.81 191.416C471.829 189.026 470.94 186.622 470.122 184.206L469.649 184.366C468.821 181.918 468.066 179.459 467.364 176.992L467.845 176.855C467.143 174.385 466.493 171.904 465.875 169.417L465.389 169.537C464.77 167.044 464.182 164.544 463.606 162.042L464.093 161.93C463.779 160.569 463.469 159.207 463.159 157.845C462.899 156.706 462.64 155.567 462.378 154.427L461.891 154.539C461.318 152.045 460.736 149.55 460.122 147.057L460.608 146.938C459.997 144.454 459.356 141.971 458.663 139.492L458.182 139.627C457.838 138.397 457.482 137.169 457.111 135.942C456.678 134.508 456.208 133.076 455.703 131.648L456.175 131.481C455.176 128.651 454.044 125.836 452.802 123.047L452.345 123.25C451.125 120.51 449.796 117.794 448.381 115.114L448.823 114.881C447.41 112.206 445.911 109.567 444.346 106.976L443.918 107.234C442.35 104.639 440.716 102.091 439.037 99.6022L439.451 99.3225C437.74 96.7863 435.982 94.3114 434.198 91.9098L433.797 92.2079C432.889 90.9855 431.975 89.782 431.056 88.5991C430.26 87.5734 429.436 86.5572 428.584 85.5506L428.966 85.2276C427.29 83.248 425.511 81.3062 423.638 79.4031L423.282 79.7538C421.468 77.9105 419.567 76.103 417.586 74.3323L417.92 73.9595C415.98 72.2251 413.966 70.5262 411.888 68.8636L411.575 69.2541C409.546 67.6309 407.454 66.0422 405.308 64.4884L405.601 64.0834C403.485 62.5512 401.318 61.0533 399.107 59.5903L398.831 60.0073C396.653 58.5663 394.433 57.1591 392.178 55.7863L392.438 55.3592C390.197 53.9949 387.923 52.6647 385.622 51.3692L385.377 51.8049C383.091 50.5174 380.779 49.2642 378.45 48.0457L378.681 47.6027C376.347 46.3815 373.994 45.1954 371.631 44.0448L371.412 44.4943C369.042 43.3399 366.661 42.2213 364.277 41.1391L364.484 40.6839C362.073 39.589 359.659 38.5314 357.251 37.5116L357.056 37.972C354.614 36.9379 352.178 35.9429 349.757 34.9874L349.94 34.5223C347.462 33.5444 344.998 32.6079 342.559 31.7135L342.386 32.183C339.879 31.2637 337.397 30.3891 334.951 29.5597L335.111 29.0862C332.567 28.2236 330.06 27.4101 327.603 26.6462L327.455 27.1236C326.185 26.7289 324.929 26.3475 323.687 25.9795C322.426 25.6059 321.148 25.2381 319.852 24.8764L319.987 24.3948C317.451 23.6868 314.852 23.0024 312.192 22.3443L312.072 22.8297C309.519 22.1979 306.91 21.5903 304.25 21.0094L304.356 20.5209C301.779 19.9581 299.154 19.4204 296.483 18.9098L296.39 19.4009C293.796 18.905 291.16 18.4347 288.484 17.9921L288.566 17.4988C285.951 17.0662 283.3 16.66 280.613 16.282L280.544 16.7771C277.919 16.4079 275.262 16.0656 272.574 15.7521L272.632 15.2554C269.993 14.9474 267.324 14.6671 264.629 14.4161L264.583 14.9139C261.938 14.6675 259.268 14.4494 256.575 14.261L256.609 13.7623C253.953 13.5765 251.275 13.4197 248.577 13.2932L248.553 13.7927C245.896 13.6681 243.219 13.5731 240.524 13.5091L240.536 13.0092C237.87 12.9458 235.188 12.9126 232.491 12.9111L232.491 13.4111C229.827 13.4095 227.148 13.4389 224.458 13.5004L224.446 13.0005C221.778 13.0615 219.097 13.1541 216.406 13.2797L216.429 13.7792C213.766 13.9034 211.092 14.06 208.41 14.2501L208.375 13.7514C205.71 13.9404 203.037 14.1624 200.358 14.4188L200.405 14.9165C197.749 15.1708 195.086 15.4589 192.42 15.7819L192.36 15.2856C189.705 15.6072 187.047 15.9635 184.386 16.3556L184.459 16.8503C181.817 17.2397 179.173 17.6645 176.529 18.1258L176.443 17.6333C173.807 18.0932 171.171 18.5894 168.537 19.1229L168.636 19.613C166.018 20.1434 163.401 20.7108 160.788 21.3163L160.675 20.8292C158.067 21.4335 155.463 22.0757 152.864 22.7569L152.991 23.2406C150.406 23.9181 147.826 24.6344 145.254 25.3904L145.113 24.9107C142.544 25.6655 139.982 26.4599 137.429 27.295L137.584 27.7703C135.044 28.6011 132.513 29.4722 129.992 30.3847L129.822 29.9145C127.304 30.8258 124.797 31.7783 122.302 32.7732L122.487 33.2376C120.005 34.2271 117.534 35.2585 115.078 36.3329L114.878 35.8748C112.425 36.9472 109.987 38.0623 107.563 39.2212L107.779 39.6722C105.37 40.8241 102.976 42.0193 100.599 43.2589L100.368 42.8156C97.996 44.0525 95.6404 45.3334 93.3029 46.6595L93.5496 47.0944C91.2287 48.4112 88.9256 49.7725 86.6421 51.1793L86.3798 50.7537C84.1035 52.1561 81.8465 53.6037 79.6104 55.0975L79.8882 55.5132C78.7755 56.2566 77.668 57.0113 76.5659 57.7777C75.3997 58.5886 74.2628 59.3965 73.1542 60.2017L72.8603 59.7972Z" stroke="#263238" stroke-dasharray="8 8"/>
<g filter="url(#filter0_d_470_543)">
<rect x="45.0176" y="335" width="220" height="109" rx="30" fill="white" shape-rendering="crispEdges"/>
<path d="M81.2716 387.408C79.4809 387.408 77.9736 387.079 76.7496 386.422C75.5256 385.765 74.5396 384.881 73.7916 383.77C73.0436 382.659 72.4996 381.424 72.1596 380.064C71.8422 378.704 71.6836 377.31 71.6836 375.882C71.6836 373.23 72.0576 370.929 72.8056 368.98C73.5536 367.008 74.6302 365.489 76.0356 364.424C77.4409 363.336 79.1409 362.792 81.1356 362.792C82.7676 362.792 84.1502 363.121 85.2836 363.778C86.4396 364.413 87.3349 365.251 87.9696 366.294C88.6042 367.337 88.9782 368.459 89.0916 369.66H85.0456C84.8416 368.617 84.3996 367.813 83.7196 367.246C83.0396 366.679 82.1669 366.396 81.1016 366.396C79.5829 366.396 78.3589 367.099 77.4296 368.504C76.5002 369.887 76.0016 372.006 75.9336 374.862C76.4776 373.933 77.2936 373.162 78.3816 372.55C79.4696 371.938 80.6822 371.632 82.0196 371.632C83.3342 371.632 84.5696 371.949 85.7256 372.584C86.8816 373.219 87.8109 374.114 88.5136 375.27C89.2389 376.426 89.6016 377.786 89.6016 379.35C89.6016 380.778 89.2502 382.104 88.5476 383.328C87.8676 384.552 86.8929 385.538 85.6236 386.286C84.3769 387.034 82.9262 387.408 81.2716 387.408ZM81.0336 383.668C82.3029 383.668 83.3456 383.283 84.1616 382.512C85.0002 381.719 85.4196 380.721 85.4196 379.52C85.4196 378.251 85.0002 377.231 84.1616 376.46C83.3229 375.689 82.2576 375.304 80.9656 375.304C80.1269 375.304 79.3676 375.497 78.6876 375.882C78.0302 376.245 77.5089 376.743 77.1236 377.378C76.7382 377.99 76.5456 378.681 76.5456 379.452C76.5456 380.676 76.9649 381.685 77.8036 382.478C78.6649 383.271 79.7416 383.668 81.0336 383.668ZM103.636 387.408C101.438 387.408 99.5564 386.898 97.9924 385.878C96.4284 384.835 95.2157 383.396 94.3544 381.56C93.5157 379.701 93.0964 377.548 93.0964 375.1C93.0964 372.675 93.5157 370.533 94.3544 368.674C95.2157 366.815 96.4284 365.376 97.9924 364.356C99.5564 363.313 101.438 362.792 103.636 362.792C105.835 362.792 107.716 363.313 109.28 364.356C110.844 365.376 112.046 366.815 112.884 368.674C113.746 370.533 114.176 372.675 114.176 375.1C114.176 377.548 113.746 379.701 112.884 381.56C112.046 383.396 110.844 384.835 109.28 385.878C107.716 386.898 105.835 387.408 103.636 387.408ZM103.636 383.498C105.427 383.498 106.889 382.75 108.022 381.254C109.156 379.758 109.722 377.707 109.722 375.1C109.722 372.493 109.156 370.442 108.022 368.946C106.889 367.45 105.427 366.702 103.636 366.702C101.823 366.702 100.35 367.45 99.2164 368.946C98.1057 370.442 97.5504 372.493 97.5504 375.1C97.5504 377.707 98.1057 379.758 99.2164 381.254C100.35 382.75 101.823 383.498 103.636 383.498ZM127.775 387.408C125.576 387.408 123.695 386.898 122.131 385.878C120.567 384.835 119.354 383.396 118.493 381.56C117.654 379.701 117.235 377.548 117.235 375.1C117.235 372.675 117.654 370.533 118.493 368.674C119.354 366.815 120.567 365.376 122.131 364.356C123.695 363.313 125.576 362.792 127.775 362.792C129.974 362.792 131.855 363.313 133.419 364.356C134.983 365.376 136.184 366.815 137.023 368.674C137.884 370.533 138.315 372.675 138.315 375.1C138.315 377.548 137.884 379.701 137.023 381.56C136.184 383.396 134.983 384.835 133.419 385.878C131.855 386.898 129.974 387.408 127.775 387.408ZM127.775 383.498C129.566 383.498 131.028 382.75 132.161 381.254C133.294 379.758 133.861 377.707 133.861 375.1C133.861 372.493 133.294 370.442 132.161 368.946C131.028 367.45 129.566 366.702 127.775 366.702C125.962 366.702 124.488 367.45 123.355 368.946C122.244 370.442 121.689 372.493 121.689 375.1C121.689 377.707 122.244 379.758 123.355 381.254C124.488 382.75 125.962 383.498 127.775 383.498ZM139.29 390.944L141.228 382.478H145.444L142.146 390.944H139.29ZM158.754 387.408C156.555 387.408 154.674 386.898 153.11 385.878C151.546 384.835 150.333 383.396 149.472 381.56C148.633 379.701 148.214 377.548 148.214 375.1C148.214 372.675 148.633 370.533 149.472 368.674C150.333 366.815 151.546 365.376 153.11 364.356C154.674 363.313 156.555 362.792 158.754 362.792C160.952 362.792 162.834 363.313 164.398 364.356C165.962 365.376 167.163 366.815 168.002 368.674C168.863 370.533 169.294 372.675 169.294 375.1C169.294 377.548 168.863 379.701 168.002 381.56C167.163 383.396 165.962 384.835 164.398 385.878C162.834 386.898 160.952 387.408 158.754 387.408ZM158.754 383.498C160.544 383.498 162.006 382.75 163.14 381.254C164.273 379.758 164.84 377.707 164.84 375.1C164.84 372.493 164.273 370.442 163.14 368.946C162.006 367.45 160.544 366.702 158.754 366.702C156.94 366.702 155.467 367.45 154.334 368.946C153.223 370.442 152.668 372.493 152.668 375.1C152.668 377.707 153.223 379.758 154.334 381.254C155.467 382.75 156.94 383.498 158.754 383.498ZM182.892 387.408C180.694 387.408 178.812 386.898 177.248 385.878C175.684 384.835 174.472 383.396 173.61 381.56C172.772 379.701 172.352 377.548 172.352 375.1C172.352 372.675 172.772 370.533 173.61 368.674C174.472 366.815 175.684 365.376 177.248 364.356C178.812 363.313 180.694 362.792 182.892 362.792C185.091 362.792 186.972 363.313 188.536 364.356C190.1 365.376 191.302 366.815 192.14 368.674C193.002 370.533 193.432 372.675 193.432 375.1C193.432 377.548 193.002 379.701 192.14 381.56C191.302 383.396 190.1 384.835 188.536 385.878C186.972 386.898 185.091 387.408 182.892 387.408ZM182.892 383.498C184.683 383.498 186.145 382.75 187.278 381.254C188.412 379.758 188.978 377.707 188.978 375.1C188.978 372.493 188.412 370.442 187.278 368.946C186.145 367.45 184.683 366.702 182.892 366.702C181.079 366.702 179.606 367.45 178.472 368.946C177.362 370.442 176.806 372.493 176.806 375.1C176.806 377.707 177.362 379.758 178.472 381.254C179.606 382.75 181.079 383.498 182.892 383.498ZM207.031 387.408C204.832 387.408 202.951 386.898 201.387 385.878C199.823 384.835 198.61 383.396 197.749 381.56C196.91 379.701 196.491 377.548 196.491 375.1C196.491 372.675 196.91 370.533 197.749 368.674C198.61 366.815 199.823 365.376 201.387 364.356C202.951 363.313 204.832 362.792 207.031 362.792C209.23 362.792 211.111 363.313 212.675 364.356C214.239 365.376 215.44 366.815 216.279 368.674C217.14 370.533 217.571 372.675 217.571 375.1C217.571 377.548 217.14 379.701 216.279 381.56C215.44 383.396 214.239 384.835 212.675 385.878C211.111 386.898 209.23 387.408 207.031 387.408ZM207.031 383.498C208.822 383.498 210.284 382.75 211.417 381.254C212.55 379.758 213.117 377.707 213.117 375.1C213.117 372.493 212.55 370.442 211.417 368.946C210.284 367.45 208.822 366.702 207.031 366.702C205.218 366.702 203.744 367.45 202.611 368.946C201.5 370.442 200.945 372.493 200.945 375.1C200.945 377.707 201.5 379.758 202.611 381.254C203.744 382.75 205.218 383.498 207.031 383.498ZM221.004 378.976V375.338H227.396V369.456H231.102V375.338H237.46V378.976H231.102V384.858H227.396V378.976H221.004Z" fill="#FFA406"/>
<path d="M71.3528 418.273V406.273H72.3358V407.938H72.4551C72.5763 407.676 72.743 407.409 72.9551 407.136C73.1672 406.86 73.4475 406.627 73.796 406.438C74.1483 406.248 74.5914 406.153 75.1255 406.153C75.8452 406.153 76.474 406.343 77.0119 406.722C77.5536 407.097 77.974 407.623 78.2733 408.301C78.5763 408.975 78.7278 409.761 78.7278 410.659C78.7278 411.561 78.5763 412.35 78.2733 413.028C77.974 413.706 77.5536 414.235 77.0119 414.614C76.474 414.992 75.849 415.182 75.1369 415.182C74.6104 415.182 74.1691 415.087 73.813 414.898C73.4608 414.708 73.1748 414.475 72.9551 414.199C72.7392 413.919 72.5725 413.646 72.4551 413.381H72.3642V418.273H71.3528ZM72.3528 410.642C72.3528 411.347 72.457 411.972 72.6653 412.517C72.8774 413.059 73.1805 413.485 73.5744 413.795C73.9721 414.102 74.4532 414.256 75.0176 414.256C75.5971 414.256 76.0858 414.097 76.4835 413.778C76.885 413.456 77.1899 413.023 77.3983 412.477C77.6104 411.932 77.7164 411.32 77.7164 410.642C77.7164 409.972 77.6123 409.367 77.4039 408.83C77.1994 408.292 76.8964 407.866 76.4949 407.551C76.0933 407.233 75.6009 407.074 75.0176 407.074C74.4494 407.074 73.9664 407.227 73.5687 407.534C73.171 407.837 72.868 408.258 72.6596 408.795C72.4551 409.33 72.3528 409.945 72.3528 410.642ZM83.3841 415.199C82.8575 415.199 82.3765 415.097 81.9409 414.892C81.5053 414.684 81.1587 414.384 80.9011 413.994C80.6435 413.6 80.5147 413.123 80.5147 412.562C80.5147 412.131 80.5962 411.767 80.7591 411.472C80.9219 411.176 81.153 410.934 81.4522 410.744C81.7515 410.555 82.1056 410.405 82.5147 410.295C82.9238 410.186 83.3746 410.1 83.867 410.04C84.3556 409.979 84.7685 409.926 85.1056 409.881C85.4466 409.835 85.706 409.763 85.8841 409.665C86.0621 409.566 86.1511 409.407 86.1511 409.188V408.983C86.1511 408.388 85.9731 407.92 85.617 407.58C85.2647 407.235 84.7572 407.062 84.0943 407.062C83.4655 407.062 82.9522 407.201 82.5545 407.477C82.1606 407.754 81.8841 408.08 81.725 408.455L80.7647 408.108C80.9617 407.631 81.2344 407.25 81.5829 406.966C81.9314 406.678 82.3216 406.472 82.7534 406.347C83.1852 406.218 83.6227 406.153 84.0659 406.153C84.3992 406.153 84.7458 406.197 85.1056 406.284C85.4693 406.371 85.8064 406.523 86.117 406.739C86.4276 406.951 86.6795 407.248 86.8727 407.631C87.0659 408.009 87.1625 408.491 87.1625 409.074V415H86.1511V413.619H86.0886C85.9674 413.877 85.7875 414.127 85.5488 414.369C85.3102 414.612 85.0109 414.811 84.6511 414.966C84.2913 415.121 83.8689 415.199 83.3841 415.199ZM83.5204 414.273C84.0583 414.273 84.5242 414.153 84.9181 413.915C85.3121 413.676 85.6151 413.36 85.8272 412.966C86.0431 412.568 86.1511 412.131 86.1511 411.653V410.392C86.0753 410.464 85.9484 410.528 85.7704 410.585C85.5962 410.642 85.3935 410.693 85.1625 410.739C84.9352 410.78 84.7079 410.816 84.4806 410.847C84.2534 410.877 84.0488 410.903 83.867 410.926C83.3746 410.987 82.9541 411.081 82.6056 411.21C82.2572 411.339 81.9901 411.517 81.8045 411.744C81.6189 411.968 81.5261 412.256 81.5261 412.608C81.5261 413.138 81.7155 413.549 82.0943 413.841C82.4731 414.129 82.9484 414.273 83.5204 414.273ZM93.2903 406.273V407.153H89.1255V406.273H93.2903ZM90.4267 404.182H91.4437V412.722C91.4437 413.085 91.5062 413.371 91.6312 413.58C91.7562 413.784 91.9191 413.93 92.1199 414.017C92.3206 414.1 92.5346 414.142 92.7619 414.142C92.8945 414.142 93.0081 414.134 93.1028 414.119C93.1975 414.1 93.2808 414.081 93.3528 414.062L93.5687 414.977C93.4702 415.015 93.349 415.049 93.2051 415.08C93.0611 415.114 92.8831 415.131 92.671 415.131C92.2998 415.131 91.9418 415.049 91.5971 414.886C91.2562 414.723 90.9759 414.481 90.7562 414.159C90.5365 413.837 90.4267 413.438 90.4267 412.96V404.182ZM95.5985 415V406.273H96.6156V415H95.5985ZM96.1156 404.773C95.9073 404.773 95.7292 404.703 95.5815 404.562C95.4338 404.419 95.3599 404.246 95.3599 404.045C95.3599 403.845 95.4338 403.674 95.5815 403.534C95.7292 403.39 95.9073 403.318 96.1156 403.318C96.3239 403.318 96.502 403.39 96.6497 403.534C96.7974 403.674 96.8713 403.845 96.8713 404.045C96.8713 404.246 96.7974 404.419 96.6497 404.562C96.502 404.703 96.3239 404.773 96.1156 404.773ZM102.819 415.182C102.004 415.182 101.3 414.992 100.705 414.614C100.11 414.231 99.6502 413.703 99.3244 413.028C99.0024 412.35 98.8414 411.57 98.8414 410.688C98.8414 409.809 99.0024 409.028 99.3244 408.347C99.6502 407.661 100.099 407.125 100.671 406.739C101.247 406.348 101.912 406.153 102.665 406.153C103.139 406.153 103.595 406.241 104.035 406.415C104.474 406.585 104.868 406.848 105.216 407.205C105.569 407.557 105.847 408.002 106.052 408.54C106.256 409.074 106.358 409.706 106.358 410.438V410.938H99.5403V410.045H105.324C105.324 409.485 105.211 408.981 104.983 408.534C104.76 408.083 104.448 407.727 104.046 407.466C103.648 407.205 103.188 407.074 102.665 407.074C102.112 407.074 101.626 407.222 101.205 407.517C100.785 407.812 100.455 408.203 100.216 408.688C99.9816 409.172 99.8623 409.703 99.8585 410.278V410.812C99.8585 411.506 99.9778 412.112 100.216 412.631C100.459 413.146 100.802 413.545 101.245 413.83C101.688 414.114 102.213 414.256 102.819 414.256C103.232 414.256 103.593 414.191 103.904 414.062C104.218 413.934 104.482 413.761 104.694 413.545C104.91 413.326 105.073 413.085 105.182 412.824L106.143 413.136C106.01 413.504 105.792 413.843 105.489 414.153C105.19 414.464 104.815 414.714 104.364 414.903C103.917 415.089 103.402 415.182 102.819 415.182ZM109.599 409.545V415H108.587V406.273H109.57V407.642H109.661C109.866 407.195 110.184 406.837 110.616 406.568C111.051 406.295 111.589 406.159 112.229 406.159C112.816 406.159 113.331 406.282 113.775 406.528C114.222 406.771 114.568 407.129 114.814 407.602C115.064 408.076 115.189 408.657 115.189 409.347V415H114.178V409.409C114.178 408.693 113.977 408.127 113.576 407.71C113.178 407.294 112.644 407.085 111.974 407.085C111.515 407.085 111.108 407.184 110.752 407.381C110.396 407.578 110.114 407.862 109.905 408.233C109.701 408.6 109.599 409.038 109.599 409.545ZM121.29 406.273V407.153H117.126V406.273H121.29ZM118.427 404.182H119.444V412.722C119.444 413.085 119.506 413.371 119.631 413.58C119.756 413.784 119.919 413.93 120.12 414.017C120.321 414.1 120.535 414.142 120.762 414.142C120.894 414.142 121.008 414.134 121.103 414.119C121.198 414.1 121.281 414.081 121.353 414.062L121.569 414.977C121.47 415.015 121.349 415.049 121.205 415.08C121.061 415.114 120.883 415.131 120.671 415.131C120.3 415.131 119.942 415.049 119.597 414.886C119.256 414.723 118.976 414.481 118.756 414.159C118.537 413.837 118.427 413.438 118.427 412.96V404.182ZM129.295 408.188L128.368 408.449C128.278 408.187 128.149 407.951 127.982 407.739C127.815 407.527 127.598 407.358 127.329 407.233C127.064 407.108 126.734 407.045 126.34 407.045C125.749 407.045 125.264 407.186 124.885 407.466C124.507 407.746 124.317 408.108 124.317 408.551C124.317 408.926 124.446 409.231 124.704 409.466C124.965 409.697 125.367 409.881 125.908 410.017L127.226 410.341C127.957 410.519 128.505 410.801 128.868 411.188C129.236 411.574 129.42 412.059 129.42 412.642C129.42 413.134 129.283 413.572 129.01 413.955C128.738 414.337 128.357 414.638 127.868 414.858C127.384 415.074 126.821 415.182 126.181 415.182C125.329 415.182 124.626 414.991 124.073 414.608C123.52 414.222 123.166 413.665 123.01 412.938L123.982 412.699C124.107 413.218 124.351 413.61 124.715 413.875C125.082 414.14 125.565 414.273 126.164 414.273C126.834 414.273 127.37 414.123 127.772 413.824C128.173 413.521 128.374 413.142 128.374 412.688C128.374 412.335 128.257 412.04 128.022 411.801C127.787 411.559 127.431 411.381 126.954 411.267L125.528 410.926C124.77 410.744 124.209 410.456 123.846 410.062C123.482 409.669 123.3 409.18 123.3 408.597C123.3 408.116 123.431 407.693 123.692 407.33C123.954 406.962 124.314 406.674 124.772 406.466C125.23 406.258 125.753 406.153 126.34 406.153C127.139 406.153 127.778 406.335 128.255 406.699C128.736 407.059 129.082 407.555 129.295 408.188ZM139.572 406.273V407.153H135.407V406.273H139.572ZM136.708 404.182H137.725V412.722C137.725 413.085 137.787 413.371 137.912 413.58C138.037 413.784 138.2 413.93 138.401 414.017C138.602 414.1 138.816 414.142 139.043 414.142C139.176 414.142 139.289 414.134 139.384 414.119C139.479 414.1 139.562 414.081 139.634 414.062L139.85 414.977C139.751 415.015 139.63 415.049 139.486 415.08C139.342 415.114 139.164 415.131 138.952 415.131C138.581 415.131 138.223 415.049 137.878 414.886C137.537 414.723 137.257 414.481 137.037 414.159C136.818 413.837 136.708 413.438 136.708 412.96V404.182ZM141.868 415V406.273H142.851V407.614H142.925C143.099 407.174 143.403 406.82 143.834 406.551C144.27 406.278 144.762 406.142 145.312 406.142C145.395 406.142 145.488 406.144 145.59 406.148C145.692 406.152 145.778 406.155 145.846 406.159V407.188C145.8 407.18 145.721 407.169 145.607 407.153C145.493 407.138 145.37 407.131 145.238 407.131C144.783 407.131 144.378 407.227 144.022 407.42C143.67 407.61 143.391 407.873 143.187 408.21C142.982 408.547 142.88 408.932 142.88 409.364V415H141.868ZM150.834 415.182C150.02 415.182 149.315 414.992 148.721 414.614C148.126 414.231 147.666 413.703 147.34 413.028C147.018 412.35 146.857 411.57 146.857 410.688C146.857 409.809 147.018 409.028 147.34 408.347C147.666 407.661 148.115 407.125 148.687 406.739C149.262 406.348 149.927 406.153 150.681 406.153C151.154 406.153 151.611 406.241 152.05 406.415C152.49 406.585 152.884 406.848 153.232 407.205C153.584 407.557 153.863 408.002 154.067 408.54C154.272 409.074 154.374 409.706 154.374 410.438V410.938H147.556V410.045H153.34C153.34 409.485 153.226 408.981 152.999 408.534C152.776 408.083 152.463 407.727 152.062 407.466C151.664 407.205 151.204 407.074 150.681 407.074C150.128 407.074 149.641 407.222 149.221 407.517C148.8 407.812 148.471 408.203 148.232 408.688C147.997 409.172 147.878 409.703 147.874 410.278V410.812C147.874 411.506 147.993 412.112 148.232 412.631C148.474 413.146 148.817 413.545 149.26 413.83C149.704 414.114 150.228 414.256 150.834 414.256C151.247 414.256 151.609 414.191 151.92 414.062C152.234 413.934 152.497 413.761 152.709 413.545C152.925 413.326 153.088 413.085 153.198 412.824L154.158 413.136C154.026 413.504 153.808 413.843 153.505 414.153C153.206 414.464 152.831 414.714 152.38 414.903C151.933 415.089 151.418 415.182 150.834 415.182ZM159.04 415.199C158.514 415.199 158.033 415.097 157.597 414.892C157.162 414.684 156.815 414.384 156.557 413.994C156.3 413.6 156.171 413.123 156.171 412.562C156.171 412.131 156.252 411.767 156.415 411.472C156.578 411.176 156.809 410.934 157.108 410.744C157.408 410.555 157.762 410.405 158.171 410.295C158.58 410.186 159.031 410.1 159.523 410.04C160.012 409.979 160.425 409.926 160.762 409.881C161.103 409.835 161.362 409.763 161.54 409.665C161.718 409.566 161.807 409.407 161.807 409.188V408.983C161.807 408.388 161.629 407.92 161.273 407.58C160.921 407.235 160.413 407.062 159.751 407.062C159.122 407.062 158.608 407.201 158.211 407.477C157.817 407.754 157.54 408.08 157.381 408.455L156.421 408.108C156.618 407.631 156.891 407.25 157.239 406.966C157.588 406.678 157.978 406.472 158.41 406.347C158.841 406.218 159.279 406.153 159.722 406.153C160.055 406.153 160.402 406.197 160.762 406.284C161.126 406.371 161.463 406.523 161.773 406.739C162.084 406.951 162.336 407.248 162.529 407.631C162.722 408.009 162.819 408.491 162.819 409.074V415H161.807V413.619H161.745C161.624 413.877 161.444 414.127 161.205 414.369C160.966 414.612 160.667 414.811 160.307 414.966C159.948 415.121 159.525 415.199 159.04 415.199ZM159.177 414.273C159.715 414.273 160.18 414.153 160.574 413.915C160.968 413.676 161.271 413.36 161.483 412.966C161.699 412.568 161.807 412.131 161.807 411.653V410.392C161.732 410.464 161.605 410.528 161.427 410.585C161.252 410.642 161.05 410.693 160.819 410.739C160.591 410.78 160.364 410.816 160.137 410.847C159.91 410.877 159.705 410.903 159.523 410.926C159.031 410.987 158.61 411.081 158.262 411.21C157.913 411.339 157.646 411.517 157.461 411.744C157.275 411.968 157.182 412.256 157.182 412.608C157.182 413.138 157.372 413.549 157.751 413.841C158.129 414.129 158.605 414.273 159.177 414.273ZM168.947 406.273V407.153H164.782V406.273H168.947ZM166.083 404.182H167.1V412.722C167.1 413.085 167.162 413.371 167.287 413.58C167.412 413.784 167.575 413.93 167.776 414.017C167.977 414.1 168.191 414.142 168.418 414.142C168.551 414.142 168.664 414.134 168.759 414.119C168.854 414.1 168.937 414.081 169.009 414.062L169.225 414.977C169.126 415.015 169.005 415.049 168.861 415.08C168.717 415.114 168.539 415.131 168.327 415.131C167.956 415.131 167.598 415.049 167.253 414.886C166.912 414.723 166.632 414.481 166.412 414.159C166.193 413.837 166.083 413.438 166.083 412.96V404.182ZM174.678 415.182C173.864 415.182 173.159 414.992 172.564 414.614C171.97 414.231 171.51 413.703 171.184 413.028C170.862 412.35 170.701 411.57 170.701 410.688C170.701 409.809 170.862 409.028 171.184 408.347C171.51 407.661 171.958 407.125 172.53 406.739C173.106 406.348 173.771 406.153 174.525 406.153C174.998 406.153 175.455 406.241 175.894 406.415C176.333 406.585 176.727 406.848 177.076 407.205C177.428 407.557 177.706 408.002 177.911 408.54C178.116 409.074 178.218 409.706 178.218 410.438V410.938H171.4V410.045H177.184C177.184 409.485 177.07 408.981 176.843 408.534C176.619 408.083 176.307 407.727 175.905 407.466C175.508 407.205 175.047 407.074 174.525 407.074C173.972 407.074 173.485 407.222 173.064 407.517C172.644 407.812 172.314 408.203 172.076 408.688C171.841 409.172 171.722 409.703 171.718 410.278V410.812C171.718 411.506 171.837 412.112 172.076 412.631C172.318 413.146 172.661 413.545 173.104 413.83C173.547 414.114 174.072 414.256 174.678 414.256C175.091 414.256 175.453 414.191 175.763 414.062C176.078 413.934 176.341 413.761 176.553 413.545C176.769 413.326 176.932 413.085 177.042 412.824L178.002 413.136C177.869 413.504 177.652 413.843 177.349 414.153C177.049 414.464 176.674 414.714 176.224 414.903C175.777 415.089 175.261 415.182 174.678 415.182ZM183.589 415.182C182.873 415.182 182.246 414.992 181.708 414.614C181.17 414.235 180.75 413.706 180.447 413.028C180.147 412.35 179.998 411.561 179.998 410.659C179.998 409.761 180.147 408.975 180.447 408.301C180.75 407.623 181.172 407.097 181.714 406.722C182.255 406.343 182.886 406.153 183.606 406.153C184.136 406.153 184.577 406.248 184.93 406.438C185.282 406.623 185.564 406.854 185.776 407.131C185.988 407.407 186.153 407.676 186.27 407.938H186.361V403.364H187.378V415H186.39V413.381H186.27C186.153 413.646 185.986 413.919 185.77 414.199C185.555 414.475 185.269 414.708 184.912 414.898C184.56 415.087 184.119 415.182 183.589 415.182ZM183.708 414.256C184.272 414.256 184.753 414.102 185.151 413.795C185.549 413.485 185.852 413.059 186.06 412.517C186.272 411.972 186.378 411.347 186.378 410.642C186.378 409.945 186.274 409.33 186.066 408.795C185.858 408.258 185.555 407.837 185.157 407.534C184.759 407.227 184.276 407.074 183.708 407.074C183.125 407.074 182.632 407.233 182.231 407.551C181.833 407.866 181.53 408.292 181.322 408.83C181.117 409.367 181.015 409.972 181.015 410.642C181.015 411.32 181.119 411.932 181.327 412.477C181.536 413.023 181.839 413.456 182.236 413.778C182.638 414.097 183.128 414.256 183.708 414.256Z" fill="#263238"/>
</g>
<defs>
<filter id="filter0_d_470_543" x="30.0176" y="324" width="250" height="139" filterUnits="userSpaceOnUse" color-interpolation-filters="sRGB">
<feFlood flood-opacity="0" result="BackgroundImageFix"/>
<feColorMatrix in="SourceAlpha" type="matrix" values="0 0 0 0 0 0 0 0 0 0 0 0 0 0 0 0 0 0 127 0" result="hardAlpha"/>
<feOffset dy="4"/>
<feGaussianBlur stdDeviation="7.5"/>
<feComposite in2="hardAlpha" operator="out"/>
<feColorMatrix type="matrix" values="0 0 0 0 0 0 0 0 0 0.306373 0 0 0 0 0.520833 0 0 0 0.2 0"/>
<feBlend mode="normal" in2="BackgroundImageFix" result="effect1_dropShadow_470_543"/>
<feBlend mode="normal" in="SourceGraphic" in2="effect1_dropShadow_470_543" result="shape"/>
</filter>
<clipPath id="clip0_470_543">
<rect width="278.183" height="329.611" fill="white" transform="translate(28.1221 55.4415)"/>
</clipPath>
<clipPath id="clip1_470_543">
<rect width="127.69" height="338.725" fill="white" transform="translate(323.026 46.3279)"/>
</clipPath>
</defs>
</svg>
